<mxfile host="app.diagrams.net" modified="2022-10-27T01:52:51.666Z" agent="5.0 (Windows NT 10.0; Win64; x64) AppleWebKit/537.36 (KHTML, like Gecko) Chrome/106.0.0.0 Safari/537.36" etag="HYu4IBjhx6QLGvy04Jk4" version="20.5.1" type="github">
  <diagram name="Page-1" id="55a83fd1-7818-8e21-69c5-c3457e3827bb">
    <mxGraphModel dx="1673" dy="829" grid="1" gridSize="10" guides="1" tooltips="1" connect="1" arrows="1" fold="1" page="1" pageScale="1" pageWidth="1100" pageHeight="850" background="none" math="0" shadow="0">
      <root>
        <mxCell id="0" />
        <mxCell id="1" parent="0" />
        <mxCell id="NjwTReQdosU8l-BSkDYV-3" value="" style="shape=image;verticalLabelPosition=bottom;labelBackgroundColor=default;verticalAlign=top;aspect=fixed;imageAspect=0;image=data:image/png,iVBORw0KGgoAAAANSUhEUgAAAe4AAAEdCAYAAADKEYThAAAgAElEQVR4nOy92ZMs2X3f9/mdk1nVfbe5swAzgyEISOAmm5ZIhgWDokzZMoOySUkvpqkwaUf4zS/+Y/zECIesCNkMShYlgtiGg22A2TBYB4PZgMFKYAaYBXNnu2tXZZ7fzw/n5FJVmdWV3dW3u+/NL1Bzq7NOnjx5tt9yfouoqjFixIgRI0aMOBVwx92AESNGjBgxYsTmGAn3iBEjRowYcYowEu4RI0aMGDHiFGEk3CNGjBgxYsQpwki4R4wYMWLEiFOEkXCPGDFixIgRpwgj4R4xYsSIESNOEUbCPWLEiBEjRpwijIR7xIgRI0aMOEUYCfeIESNGjBhxijAS7hEjRowYMeIUYSTcI0aMGDFixCnCSLhHjBgxYsSIU4Tbi3CnPGh6vK0YMWLEiBEjDozsuBtw02GAHHcjTimqBLBj/40YcVthXe5nGVBmxHZwexHuNHscIw0aDFv6PnbciBG3FfoIs7Q2064y41axfdxehHsjrOMbb2cMWX5jH67iqLavbfX1zdpe2+3d9Jmn7R37sA2ytl9fHN07CiBqrT9s9ffqD1s6hT3urr/FIKp62+yyZvFVRQTreeu++TVkyR1V2YOU771/SINGjKiwPG/G+XL7wNpfmomwMCX69pUBm5QZyEjo12KUuG9DHGSv7VpH4549YsTtAan/k76YtS4u7wQGJovnkbYPJb69zKQPjdtE4jYUMFMkBFADcYgZC5NOAp2i+HGIyx1l++a+DBnBTTjZrvoMFlbXwiIWkLat/mi3v4oFRWILVZ9WfVbNya6d7Cj7uqd9bZWn63jW4N2jXccJfEc5yrnbVXffvBhSxwb1HeQdUzWdQ2yhEYsrGt4uqUtzuG5Se8yb/deqAgLicsx5QgjkebZcwQhuA4nbTDEkDvvsKm++8Biz179L5vLqKs1i0DStmglodBDM5fObAyAayBnWorptAmwdC7DNxNb3AM6WSm6NFdPm3a16WuvBVaNgiXuovq/vJ2OJcepErMPZKoOylolfsT60+Lzeexztn5dft13v5iezulChdN4p6b26rf8W37GaE9bZlv2EGrH+Mivv2zHHe42T1j92oQZbnOR0zZHF+rR+5X3HZqMmuEMvj/0e3XmKv0QsF+TUTfeTTQnugP2pi+mv9zyJf8XvHuc8oJgGQjAEh4ngnMOJgJPFOqVhSuOMlrpDVA00IBbfSUP6V4Tdex7g4q//U8jvwMxaavOReFe45Qk3SJKwA9e/82Xm3/4sF/VnmGTYQQ5Smhm9+pym0CatSoRklXCbgA7gxFcJt2EWl4uqIkvvOURC1wNLIOskzFhnJCLr6m/qcBY/TR3VBtN9f7svK1jvs1zztLbQ0NH8YTMmMQsLT1nd2PfjP/pMgGRh3F03k1ndZQ2xaMq0JJ4jYE67sK6NsPxOretLdRy2DfX3fdrSeX1A/e2y4hrOuybc66TaLWKh/1pK1nUKP2ktCBGPOYmEVBUlJ845BRF85nHiQHxaR9bSIWnck1zFvCohlEih0dhtaQ3bpfNc9VPO/f3/DpgwXCtx6+OWJ9yK4GxO+bPnufLcX3FOZszsPMHsQItFOjc0aUlTm0iRjfSzTLxjFcIg64y+DcYL+MV6vLWOpzatfJAuvn46K0+pmZ4oecWNa11/NXWoJRK/xDhph/p2mQC3GlA/SxZLx1+XhcHl5rda2kXUKzQMxuK7VfvlfpLxMlafJa13rHZ+Wdsu1/FChmGup++HNnJDdGmN2ugbu3Yz96tjW+gjwOsevq5tThZ3CTimQyWxhrFdU6y9N5kFLFgkzn4C+RTF4TDmszlmnsx5xCemWo1SS6rj8IpTcQJmhloAb4ivWhGf40yxecHbLzzMzh3n8R/8COKnjIR7Ebc04TYzHFBe+gFvffPjZOwxN0H9FEvqmyGImqMO1Z6BLchT+9dcleiTGLdhrRGwlSN71cVNcD+YaK8F/nrsI3FXalvbTOJebFTTN2ay0tv979c8a5E4NOr4hccsbcKL0nv3KC8SnhajsKQJH0IXu57V+462SrxjL3b1pcQJcROx31Tq4xG1rSof2H+d9Q28f0Wr1Yc1beu0JtqgUjvAAjQSwRxis7MEh4C5OCaV2twyME+JIN7jRdAiMFdjVpbkeYbzHgC1LPaHFkgIiEi9AkWk1kdZxVSaEXA4L+zo21x64Yvcfe4eJu/9e6h5RGxFe3i74pYl3KqKWEDY461vfRa5/BOC8xg5YktnbRsiuik09zXEV5Kh2/IvG6CjHbZ4ArZ/Fb2P7Kh7gLQS1ZoHlW163iH106Kkt07ibknIVbHO8/R9mlKXbFTDiwQWgjSq2uWNfXkzXkM32zY7/SUPu/+sO8LoVXtXbXEd5+oVga/YhO3LtCr9hHmlHT30pkVDDgxLFW1KvJ1F1m6TtrffcUXJsQHR6XpGdf4bq2jpitbw9utU8ZLOovtmUEsHBVYR22pXisa9DoeIwzlPNskIwTAtKKwgw0CknnZihhGimr11zm1Ysx/UbTXUObwp4Z2X+PnXPskD/+w+zF0Al42EO+GWtCqPnGaA65e49q1PcPWHX0NkjolL59pCp4nKvj2xpKatvy4aNm2y8XWWrYmGGyQReFtd8LHWPjXo5nXbWlV2H/qk7Zbqe1+r4cU6mndc2Fa6Ve3LzZXWU6rn1uO1+Jyus/HmWQ1h3wQN42Mb37eZAV5Lkl9u4/LFqhLL6h+atiz23ep23nzfyiaxIdPYR5iX1cyHaYcOYGCFpOHY4IY2Y7w8dpsQnU4dVc99+x32ibTWiixf79cMWKucmKULvvlVFGSC+AyXZeCEUo0QCsyU3GeNwRqKBcVCCYAmDZsQNQlxLhrzWZGuKs4ViHk8juAm6AP/kPs+/C+wnfcgLltqZVXb7YVbQ+Ju0z4XtX/eZlz97hNc/vEz5FKiScpobfnpW/y+M5ky2yvAuYWtq1ls0vreGDM1BVs17qPakmotLBOdiluXPtVmN9pSXvsa7rDqdj3kkqjOu1YJs8O33t83P0jbXqCpAzYlaumuVFZb4yIWmmctD15tHd9dX5vRavkptMaq66ZW/w2h9ssP7hGt3LLUvI4YqcRJkiZKlLokXgZMDbPQ3yxZmmOy2F9rFe7LZ7uu1WNVe9qS5MrYte4FfL6Z5CUi6dP83fq1956uaz5LY2BLBGPAAuluc0jMZNfIxbZXvSUieJ/Xv9p+Mpens31r+85cWgpCadYwUfWjktmsSXyAd/gsjzZDpqgoovF9MnGJQGvtehtC0VTlDAklsytXmRU3cBYN3iDH8AQFpyV7Lz/Fu+fv5I7/4p+nZxr4WunOwv5xm+DWINwV4izBu0Dx0xe5/r0vk4UbmFvdWi1xeibCrAy8/OPvM83TBFyhyMN4/IOcSR0FTopaaVh/yAoTcjzt2L+Og/Zvn/DWx2YdehwNvFt0dGxLXVHlGd16Ohtb3eMae4LaCGlde2uiY/W59ALZ65ACex5dVbd6475IuqdlgttLuLtGwdBQIq6h25U0u0lT1s87XeVI2/dq1f6qLlnpq642REHZMHSFseybT0neJZhGWxifIz6qxEWq+SE4FJ0XsX4DnI8fIKBoGRArEFOcWbTjqYSVZBlrCJZN+NAvf4Az56ecDcaNy3s4cixEsmQoAWPXZlz+3teY3v0Bpg/8FhWhjsyDux0F7ltPVW5hjrzxPX722H/CX/sJmQN1y6y7pBMbpTD4+jPf5sal17j7jt1oCdmCDOSqYSTcyxjSH5HZP5p2H3ZcFqRCknHNAetcllDX6VcOOo5dBmzVhp5kuES4l200qsLLiolmLahWJ5897W0RuLZKt2KKLWkLmjDE67VD7f7Z1OzC6pewJUkZ+tzdZHmvoJo32rS1Ltyra1mqNDFJyqC5LQsPA8ETdHMtWOyn1fKd7whUBrZqgjlPPpmS5dPkvw0hVBoZJcscRTEnFAEzcJMc5328V0s0zLFyjrOQzrKrh0fGQ8VzuZwwOT/ln/3B7zARx+W3LlNcmZNpHs/ECQTi0aFTQc7ey8WP/C9MH/hVzHncPlqyWxm3jMStqkgoYe8tXvvKp5lefQ0Th/ascicZwSmvvPo6Tz//Ar963104HD4taGmpbHWg5a2TE6K6GUBTdK119+EwpD/UOjbZLUHE9au1l9BJlJf+HHKcsVxNx97ZT5AO0R3V2XzzkEb1Gs/gq6OWjr6RxTYtqK6TdN7b5opAd1zW1u8bSawtST2qbnt89zuIfxzD0PGgAcdIS/cebDjcFjS6Bt5v9nyDaFa2/qEiru6J2LcOwXDO432G954QlLIsUVW8czjvKYMhLmcyyZnNZoSixFTJ8inqHAQhqEaiLZJ82B1mShkUn00QzXj2Wz/gQ7/8IX7l197H2TvO8sa715EgGAGfxTkpZDgpseuv8+Y3/4r3nf9Twpm/izrDSTxJOilCys3CrUG4reLyr/P2M3+DvfsjPAVFpdtatsCVeJ73xlvv8vnHvkRRhsgpQi2LtHl8G7g5Dy1/EnCUbR5Wtx1hWzYntBvaIh0YN10n032EuhStb7VQoOmxBduPxaP1/md0NGPw6K7U2xuDruf+Ja1ZXd+mLakNTw6BAQYaW0DFlO0LgdDSrMSj63h2rWIUYU7QQFHOUTOcCQ5Pnp2J0R9FcU4IZYlhBJmjFtAQaBvt1sxiUoBUBkfF3Pj4X3+O//lP/wfe//77OP/ei8zfvobOBbVIuD3gyDArkMs/4dLTn+U9v/2vKPzF6EteGbzdRsT71iDcGMKct154gr0ff4UpM0rnagOw5pS6+iYUwXjkia9xdS/gxYNzlErt7rUQ82rgfFD6jXxOLI5wzg/qjyNsh3WSpjU4qrN2OjZVO7ITAqDnVQ5ERdfUd/DqulGp2zd80KpHP432pnPgB7JPh+G2OlUTR0y8O8Z3gVFrySjxssNwTKdTXBYl+1AWFOWcMsywoATvcOrJsjO1iaZzEk+jTQlFlMwxTdKyLBDuinV2ZuyVBQEoZsa/+/MH+d//jz/hwoVdrCwo3rmBqOEsRmJTMUo1fLjB3k+f491n7+LCb/z3aH4+GrHJ7WWidgoJd5xiIZ0yOjOsLJn/5Ctc+/Zn2UEJVD6EWgXlI4hHXA4hoHge+fpTvP7mFbzkmBpqEq2Fk7ptWU3axc25DpVd/5lnn2puGwFYhqi5+6TOowsEc7Q4ne3uixF9VOite8BDpTXfF29zHdd7xmVQKNU1eo/Oy33rcXnOH0SfcrBjkeaRXVYNVVuGPGNzJliQFnXW+lGVe1k0LCvT9wxxk2g9L1k6HjS8E7xY1Ef7FLZKldneVXZ2ziYqHAmrpdjjjoZfqqIdxt1aibYCAVFw5sj8DmZKEWZ86lMP88d//IdMz+8S5jPK6yWYoC6ekefigF12bY8r33sEd/Y8Z3/1dwnubLRcF09zWn+y1/9hcereLpqJRAQDpUDfeJG3n3+MM7JHWcwXYpArkjhDi0YTzvPMi9/j+Rd/QAiCdzlI8jk8Ugb4ZBisnZx2jBhxM9BFDA+y0A+7Obilj3R8jhKLz6l2ATNBiW6BwUpCqIzwooLarGmz4gGPIXifAUapAVVD1VKAlb7nEvdlcfXfItE40kQI6vnB937K5z73JEFyzt55J+bBUsZGqXZyU4ySqd7gyouPUl76IbmUZK7KgdBy1byFcfokbmtUjR5DrrzOz7/+SfTtH8PE4b1HrRUar6LHZuCEV954iy8+8VWcz3EiXL9+nczHZBxq1h2YhW5J+qRYj28DlZVvxy83uSVD0aeCPOntPnnY5hnhdubTNiwNZM06Xb0+pA+OZv3vV+eQZ3avA0tO+W0hKHobBDCHquLExdPlyl87natUxo4+uQNqUNAQjYNZdKVttB3V8WNLz2Canq6oQVEoOzu7fPHhr/Ce++/hH/7Gf8a5u+7g2qXL+No4WOKxebJcl6uv8tOvP8Tf+f33wOS+JgfZrU+3TyHhBrDof23XXuPNpx6Cd/+WXOaUpU9cXTNyIimFXDbhyvUZn3vkCSSb4CVDTMgnOaZFtHy0RQOd2te1Z4H2XT+NRhIHS7lyUnGIw9vbFNvureOYTV3vYNZn7Nizdgc87+SvmO51oBX1dVGqEe9xzsXkHwrz2ZzMK5N8igHeT/F+2nIHA5dNMI3S8Gw2X3mKLSdxWtorq19FFLOSPHeEUjl/9k6++LmvcPfFO/jQB+9jsjenvHI9htSXpD0Vw5wjSMbOOz/kjcf+kjv/0Z8gOzEs6u1w2n3qVOVKzNma2YwbP3oK/dkzmM5R1zFYZjgNOBfVPJ/54hO8ffkqfsEXJ03edoDp5RVp3Z+eyyNGjBhxsmBSfwKAd7g8YzLdJcun+GyHLN8ln+yQZR7VkrLYw9TqKGneT8iyCVk2hWBoUVIWBVVUDMESgdao2rao2haLxmqYRl7BjCapn4IEYAYS65pducFDn/g8V6/OOHNxikwySjM0qdYVS8ehRi4we+0H7H3nYXy4EX27byFNaB9OgcSd1CwWz2EQwZcz5i89xdsvPMa5cJ3C5VH9Q6V+ibeJCjMBcxmPP/kUf/vjV5jsnkmp5fZ/bMMzWidF7lfSbmPibK7eG1ZHn/psaDtOOk5ruzuwucB4uGfUk6BP7hwwJ63Phv/oxqXzaTZsPfaX7HvHm42+J+43Zq3QwQLOezKfY645c46lDec9glHOZvhc8fmkko9jJDdTLBSURQGEFEo4RmkzaRvEpWdXe7c5Qkf6WcGq80wExTnPpTcu89G/+hv+6H/6fc7cdYFw6QoUmnb3lM2PQBEcEzfj6g+eZHL3fUx+4bfQ7Bw+RrtJqv1oNi/ruumU4ZQQ7mgsYQbelNnrP+Ktr3+K3dmbBPFgHpcGKYbXM0TBJIedszz74vd57sUfMN05CxbPsz2tRB777Ud9wUk6LGSNng1r8ArvukF7NvEexUmn6bLRrWg5Sl+kjv4zetoxuPIt1LEFDHrHzcexM1979chBFtpdaOquc0kAyznPWw/srKL3LPuQDEe96W5Y9bAYkN3zpr+Ow5LonnHs6+s+9PbpPnW0por4DOc8Ig5VIYQSVUOcx3nqkPaqSjHbwwRcPgUBtYBYiZZzCCWG0o613vTfUnssupppiPO2PrU2iZnGqvIiBAvk+S5/+6PXeOSRb/IHf/hfc+Z8weytG/Uw1FnsXBTWpLzCq09+jPv/yS7+gd8kJtWhNlSuu/6EbBeHxQlXlVdkMKpdMjPs3Z9y+emP4mdvYB4KHwiuRCUmbRfL8DYhWIbb3eHSO5d57IkvETRyhe2g/QtPWj6DMWs+N+ltR4wYMeKo4Zyvw5gWRUFRFMzn82jwlQSbokjhRoln2OW8qO83IMt3EBeTgWBZ+ixK76tYPKJcDHfbMDCSyFKWTfn6V5/mmWe+y84d58jOZnhziPpoOJfcv1SiOv6iXOOdZx5Grv4MLIYOchZD/5oDPeHUbghOtsSdgsibRB9Ad+NN3nn2YYo3fswkLylSftf2kIMhTnBuwttXZ3ziU58G9UzyPEXzqfwbWZxHZjHcZiu8aXPu3UO8B1irboX6L6gzD9gOjuMMqOd5t9RZ1IB3HDiOnUaQWznL67HKqBJWd5bvunz4d+ystqcZdXa9U4e+/jtsHRvMhaXkONXWVhRzxAnTSUbmPaoBDUqpAe89meSUZUE5m0U1duYxHDiPyyZoCRYCgkbjsV7tZHVkkdzGrJLSu98nbsWK81M+8bFPc/H8WT74wL1cKS7DniKW1SlzXWIYilBSvvkj3vnqx7j7d/43dHIRce6W9DE58TyIpSACMr/G2889zDvf/zJTEdSalHfOoInPY8w1sHvxTj714Be5fjWQuQlalghpgiW0kzCYNS5hy59hg36EU2QbhO6kEMsT0owjRS8/NeTMNWXWWvkcZQcO1Wd3Xd/GXG229uXP6cM2iHZf1QerxExxzpFlPrl3KWFeUMznODzZzi4+n0TpVgPl3g3CPObNNvFInuF8Tkpg1i9rp+OURLZrTWZ/oPt0hi0e1OPlPB/964d599oe599zB37HIXUgmrjvK55SHBPZo3j127z69OcRux6N2RrP4FsGJ4hwLy5LA4LEwZZQMnvpBW786GnuPgvBAeZwFr2u1VXqEgNx5HfcyWcefZzXX/85u9NdQlDUNHJfLqWpO6XLf8SIESM2xTKj03x3YI7JZIp3GWUIzGfRijzzGfl0Cj5P7rXxTNnMKOYFoSwpraDUkqBzEN3QANA6vq1iMQtfRigdl9/d46GHHmVmQnYuI+RzMmLo1DaUHGcBfvR59r7/OGJlepri6Mt7fvpwQlTlVWcqkZeouDPFo9i7L/HOsw/iyzeZUcaA87iUmzZQpUIIYrizZ/jK00/z5Fe/xtndM8zDjeiuIL6VeL7KUWtLz14952blale7N7ic3CQiDpFDtltnP6Ds2h+OBje9HX1y2RHyqUPfcQvjGAb1X5cKU4a1+yjfcRvNOFL09N+QhbyNddBzdLAiiKih4jAXc61HbboRLGZRFJ+lICuCaogZwFLglcw5kOjXHcoSKMFZikFuFHNFyhSqSkssCVjac4QR29d4/MTcBXH/NgNTkIVc8O2wrlXOiYxvf+8lpg8+zD//g/+WIruBmMOVKYiLM6ImQHBmTMo9rr7wBH73Iv6DH07n5qkNVTS4UyyCnxDCDc2QxwGI8W4Nu/wzXnryo5y9/lMcBUFyzLQuLQYmRhAjP3eOl998hy995evk+QTzgpVKk+3PLT0vPqvXyrfG0BHuMH5bWPi65d1naGUnheu82YS7Gu+biSHveJTjOCSm+1G246TMvSHoP4s9/Hw6fH+Y1eSNFJQC5z15vgve41xMBFKGgAuBolBgzmQyiUQTcC5j6nNwUaQJIaBlSShnmJZ11fH8IhBCWT+/Dl1aH1l2IzmCUQlmiSKzth8l+n6X5nCyy1NPf5dfuP9+Pvybv8a1t65hhSIS3ciMrO5Okwyuvs7Pn/o095+/F+78BUoyvGsntaX/uSccJ0hVHg3RmkE0XLnHO996mLOXvp2uZAhKcJFYp/xwGB45e47LKjz44JNYkZFn02hsdsBxWbAqPynnwiNGjBjRB0vuWJLh8gk+izm1RTxmgncZeT4lzzPKMkRL8iS0+BQ9zaXAJkHnFLOrhHLeuQ+aaf05OBoXsP3gUCwEdrPzPProN3j59UtM7jiHJtFTLEraVdhVEzAnuKtvcOXph5AbbyJOCDWNOb3WEnAiCHcjaRvUDvpQcu0bH6d4+TnEeaKyxRHEo2LJdzA65M/UYHKeP/vX/y9Xr1wmc4KFACGLPgC91i2KEeKk1MoIqJqMTWEzjdaWG37ak/rwk3vEiBEj9ociIJ4s34l+185hFijLkrKM6ueyDGSZw3mYFzOK+R4WykgYtcRCiZUlFEX0sFnax6o9ro36d1b3vdVP60apLNw3IdxCJoJayfW9gv/rX/8n3rp2g/zCWQpSYhGLqvzqGYIxZY/w6jNcf+6LuPJaK8OdUQcvOIX0+wSoyivFRbLoxiHljBs//CpX//YbZOEKQZI0noJcxHSe8XuJ487738fHP/MFJAiZAVaF4IuGCe1csN2PdynyWnOufRiMEvpx45SuxiNFX3+M/bQ/Tvh8qmiQSPSJ9i4KOfMZqiWhPnyeIOIoQ5kEjOjDXZaz6Fab9s7Gxzp9umLgWPt780enJGiLf6jZilHZPq+XDsqrc+ocn+U89NDj/Mkf/QHT3QLmSij3AFB8CpammASczXn7B1+Gc3dz5ld/F8t20qHZ6c0jdgIkbtL8cBBKnCnlmz/kzWcfhHAZJCCUqIvnKGKG12Tl6Bx33/8LPPnUszzz9Hc443O8hXSUaYgUC+5fy49sf9G6HUf9siNGjBixXSgu+j4DlSASUNRCTOIxyfDeYSjz2V46o3YEU8pQEkIRz7ItgIYUZ3w7ZG1xW93PLmA133hUfRsm0RBOzXAy4cc/fI3PfO5RLly8K8p1VkXRjM9TgSCOgGPX3ubSd77I9ZdfADRpbt2p3e+PX+I2w0rARwMJu/oKb33jM0xnb2ISmCfLMm+abMEFL5Gj9Gcv8OyLL/PgRx/mrot3oGUJ4uKRiQiQpX8XzRHacABOiP6FSbJfKtgvQQ9RgW/DkGWIgdFByq+iO0PaNox1jtLgpw99dR9+HI8uHeS2uMm+9m2j7pPB/x8PDtt/w+Z7WxBRMwKBLNuJNj2qBDPMQrLajVbk3gneC2WIEdJUIZ/uxL3RFN3bAwnRyjuKRNTzbiEWbrsd3WPeZxJawWMp34ikc3PFLCwdcy/2h7PqzaN1vBNDmCEenvzqs9xz9538xq9/EAsZYlDoHk0eKcHIUFOm11/n3W99jJ173o87c0/KiJZKnbKMjse74qp54aJVYHnlFd762sfgzRfxFuJAEQdODDIDp0ZRlLjzF7l0reCzD32Bu87fiZXaGA0LLBq7bdAUrc6zR4O0EbcTZMDndsbN7aeUX2vh0/a7ibTM4fwkZvfKJ2SZT8Zl0UbHOc/O9Cw70zNoUObzohWT3ONd1jpGPNoxtnWehwtv1V/KkeyRozwNGGd3LvC5zz/JS69cYnLHlLnOcZLRWKhFOmBkeDHkyqu88ti/R668Fq3gvSDu9M3t4yPc6TxFQwALGDd46zuPcv3VZ5nYDTDBEaOi+TSWTuNn59w5zt1zHx//+EPsXbmOF6M3EchGaCTyZWvy9QT8pG96J6ktXTjKtg2p+yT3EQybZ0f5uV1xXP20WK9RJdAkfY+E22cTnI9CykILJGooy1KZz5VoU+ZwPksW5CCmqFTaxiHvfjxYeLpB7nMsCA8+9DhkDr/rKLQk9sXiKbYSs55ll57n8guPIPMbp1ZIu7mq8gVta3ToF8BZwbXvP0X546+yGxRjJyUVUVRIH8OLoORw7gL/z//9F7z56iWm0x1KDPOV4cIQpIAvEiX/UIaarxWR/QfUYDPepzLyOCZ92HEAACAASURBVOwEGWhg1Jl5SAe1o7sPtqC+TeqvxfZtqZ+G1t05jlXWow0feVSLv/NdjgPr5s3p2/gGYeN1ngpvY/46h8smZFnM5FUUM+azWV23IZg4MpeDeMoyEMoynl3PQPIp4nwKUiXJl9tjgM9zTI1QzCmKGarp3Hjjdx/2jvVuYRBMMVXQgCZhKyYZWT3b3qTmsryOzzzvvjPj3/75x/jTf/Uv0XAZZ4IpaKiekXzNRci1ZPbSU8zvuZfJL/826s4sGMt1HQ+eNFX6sUncjXFYSfmzb/Dzp/4aV+5hziVDhERAq2Jq7Dm48P738dWvPM1PfvIy2SQjuBhfzfCHb1NLn7PZRrxp9x2nxL3JtePCclu2La1sWvdNTnM6GEfZlk2lyM2PnW5dHIEWwzo+CE4ynOQ4l0PKwGVUqYsFl+Xkk128nxDMKMtAWWqMgBaUsixTis04dlk2qT/gYuKQYoZpaDGHfe+8ybXjgKGUIMo0z3jjtXd5+NEnmV44X2smuqDkZOUVLn3jU1x/6Xmc7t3ENm8Hx2OclgwexErs2s/4+bc+y9nyEqXsxpMLSWcYUiUQAfGeOx64n++//DKPP/oEah6fgVkJ5uLWu+X5tD/xHshZH5lKZp3xXIfEfaQC0pDKu9rXbQwzDNLfjl4NwjLW9dPNljC7+mlL6FKR9mkaTkx/7I+2gLTfsmtLU91rvppPG77nQbujuk8E8VnMcihC0IBZqFJv4HzGZDIFl0dr8mBRalZNYUkLRKJPs8vzmJuhyksNFMWMUMxjfAmN+2zMlz2g4QOzvC3HwlJpQqTWwln1+gOaoRgeI/OOvbLgm09/m/fc+x7+wS//EvNr11KFsmD+FMQhusdE93jj2c/xwIW7ye78O5i4mHt8ieyfNGkbjs2qPBmC3XiTt5/6BFx+HWXSOMdLZX6QIoqbsXv3Pbz02pv8m3/zHznrMzKSKjsAlMfEBA5RzQ9VLx9eCtRO9VO0HTg8DltHZWCyKYZYzg9VLfe142ZPqqP0Uujrp67rfXO1S+oeOo5DcJh3XFV3Hrzuockphigym74OGhBxOOfxk6jWDgT29q5hZYl4wbs8XteQ2p8BgjiH8x4hoFpgZYFRYkWGy/wCI6NlgSUi71zy3+4dw765MGDMrTqjb8bD1BCfjilVk991fCWxTUcmRs0MBjeKApVIxr/w8JNcvHAHv3jve7nx7jtkWewjzOFN8RSIi+81vfwD3nj6s9z/O38MO3en2Rz1tyIn11viWFpWIohe480XvsDez14kI6aKW+ByEPIM5pTkF84xdxl//Zef5Gw+oZ4EUrMAw7jFY8ExtK/TpuSk99M2ML7jxnXcgnPEzAiqhJSmdz+EoPXnpMCZIFYxSvFfLxOy6S4uy5lroAgxEplIJDJZlqd82QIa81mXOqco5hRFUX9i9LOT866HQ5q0AlmWE5OmOD75N1/k6qzETSOj4yzgrYTKPt88WE6ugv30q7zz9f8PKS+fmEOA/XBTJW5NvoU+zLn8vSfZ+9GXmeh18M35tKWQdeIglCWTC+eY3Hcvn/jzj3LlrSuR4zzqJE8di/0g6pK2xWJcXJveV7dk2POo2J/E1baM0wyLRipL7TteDHn+EMOoNaryE40hbR76jkP7adMjhXXXbzaadjRhhvsS+LbXSUPErHdz2cZcXS2xuCU0WgJTjW5KJuT5FPM54jxqDudzCCVlOYdMyCWPoUO9wzMhiKJaYtURixntJEdO2v10WL3+ZiVrlbg126tZW1F+0NqbsmUoE+PiuHJtxic++wX+xz/8Pfx8D6eKlgGp54ND8AhwlhnX/vZbyJ3v545f+28o/DlE4CR7id1kq3IBC+hrz/PuC49wJryLeRdV4i0rbhGJ4U+946733MuDD32e7z7/XfJsh1IbdTomW+7cfteAg01wa/EAA3UCHWePVRjCLhVObV9irc04BZ8xM8x5nPOgcVGv1q11vXEj2yyG8MGxsT6sLt6JrjrWbAgnGoP6Y+A7DuqnnrHpHIOB4zgEQ5dcqx3tNdLd7ObdF8pu4x33aXe9Vlk8+62tmdUo5jOyfILLMrzzWLIIN4SymMdgUyFaZgcr8dk0no27jMn0DMV8RgjzWo+5kCCk3ZYFItq9t3RiQH9Uz4umTdJ8Dxr3/UPVLQuH5Bqju5BnOT956RU+/9iX+YN//OHYV0FbvuAQNRmOkikTMWbfeYwb5+4h/8XfpCQnE39iQwsdMeFe5CsdgeLtl3nt6x8j3/s5SpYMYRqCLWKoBrLdXc4+cD/ffPoFvvHo1zm3c5Z5mONyiVyxtGumVp3DkDOS2KouH/BFLvxgXKm0orZpCoC/4Z1r27+StKRebMvTrN4S8M6TZTnlbC+pyao+d/X3xXqP2r9x4Jl/b9EOld9JEQAHY8i54RbqHtKnveWH2m4MQKc74zoMP3fdsDDbmasdP/eULYo91AITOYNVBF0cFgJFMQeNql9XBkoNqAi5z5JhW042EXRPwTpCiK6JebF5QqQBrpKVOtvS66phTmvjO5UYBKXeywecLS+OYCuqXLnHrs957pkXuf+e9/Drv/J+zK7jkgGaIJjEI1rFIwb++mXe+spDvO/sHeg9v0JLT3DicHSE20isjcWjflP06qu8/cxn8FdfJ3MQgksENw6UABPxXCNw7t67efOtq3zx04+yO9mJ1n4Sz3pCVf/SAzuVYusWaG0IIY0Kx1YX6UEJmJn1hAxtNaFPqt14vgjqstg3pqiVDUdpoU48kOc5JK5dllh+EUl51m4yhqkgBtZxCqn34CZvg5gM6dehY7ANbI9g3ry616iH2hbsIohpY7C1ID3G66ol+HhubSkPQzxxlBh7wkKMUT6fEXLDZ1kM4WxgYqnsIhPeteUM3uM2lkHSfpqOIOpdpt5mK5G/kcQO7gYv9X8lRYU7M53y5Je/xoVzO3zgvrvQ+QyfeYJF02eXnqvicBj59dd455lHuOO/uoicvxeVaNhW5TtvUlYdL45YE2BgShkCZte5+p3HkVeexRN9DsWUdjQgMQhmXHzPeymc48/+zz+j2CsIQRMRdFSxcJbJ8YJ9zVKBLvsboZHMm/g63Zz1dlTGva3o+axiNaKbgLgY7nC6S5bH7D8LSrFEmJ33qd4qwtLi/44Hh+uP9XWcRhx+jgyv+7BlD9Luo3i/oe04jrqldoFyLqvTFVeoVOGG4NwE7zOcFxoTNcE5Rz6ZRv9uyaLQY4oVBWE+R4sC0Zg0hJopOArOamhfNNLroilxWytb7cYHmy2O6DEjEjWMUgmOZjz40OeZa4b6DCTG/QjShJI1MYIzdnLlxivf4epzjwA3kNReVAf7FhwljkziDoCow5nDh+vMvv8I73z3cc7ojHiW0pALIcYjdwbZXRdwFy/wl3/+78kqSTKVrM7BfSXF0upIoZPAiqwnTIaLkXxoM4DbJ95D7+/igGOQ/dQXaaqaOKYC3oGa4LOMUJbxzDpxuVmeb/as00rvRow44agNTpNUkWUZeMc8hEbT19ojQigQMZxANHYXTASfTRAnZJOcYl4iGvcvUcPKglJLQukIKf9215I+PqPUSAar7+IkHY+6hh7IsG1oP1bJzNAyAMYnH/oMv/dP/zEXkj0AUikCNApxBqV5prrHtR89iTt/J+f/3u/isrMnzlLtyAh3NLkXcMbslW/z9guPcU6uoymoSmVDlUGMVy6e7MI57vjAB/mbT/4NP/vRz/CSRULtXedkaw/aYaZixRyoKq6jpqETfZuZoiouPFacpr5aUnsbpoEQAs45xDmy6RRxjnJeUIYCJw4xV6vWjL6YQsvc8cHbfJJxEoIpHOd8OkzdI9Zh050oJvmwdL5r0iJnprWQEQmOMdcyCaseEyETh8sj0bc8oyyi8jZm2VIIhpTxfudaQk+rBXqEcuP+86mlYTDDieAyT0iGY4Oft8+vIjHUKyK89vM3eOaFF/nd//LDlLMbMceFpP6oBD8VnDO87vHOs58hP3eR6Qc/QhEC4jL8CSHgWyLcbXVHghpoic4ucfmpT7IzfydyiJMJLh10mAOvkZi46YRzH/hFnnj8Szz6+Ue4uHOOWWF4t0i0102MLrvtTdTAIo00367j4Jtaux3bGOhFdZrPMrzPo+pGNaXqU6bTKeJyxDuySVzMqumdDEI6xz8s4R4xYkTEpis97jEen3tcMiIzgUk+wWUxRGkIYaE8aLKbFeIXR1HMyADnwfsMMIqiIFTJEauY44kbiOrik0FsIqKmsFKXVntsTJKyCktRNtv2Ql01dqN69zhK3md865kXOH/mAn//134FC7MYiCXS65iDHCWIA1HOlm/x5tOf49677iO78IvROHDt824ejlTilr2f8+oTf0n27o8xMszvYFJFFbfq/2iecccvPsAPvvd9Hv/MF7hj5xwhCN4NsS7sIdFCbYCwjMYYZJuEqkUZD5WIfvneKDE75/HZBJ/leMA0UM73CKaU3uOJfoziJ0zyuKjj5DfEUt5xpJPJOTHYr2knYeWMGIRlg6O2feRpR6U9jK/YvNSCRjBpws2EeVGk0M6Qp99Ulyd93EeiT3f1m0MLFz1BxCPe47IMZ0apWpdLqZMwFFtoxXFjkZBuYoUmSaUtLSK/8PvaKpLHjFQn4MKZ6Vm++szT7O5O+KX33ZesvBxiBhIwl+o0oQw50ys/5cqX/gPnf+d/JbvjgdrI7ri7dIuEO+q/TWKoTRcu8843P072+lOoTDEUkQI0w0wQE0oNMMm4+KFfhmA8+B8/ic0C5j2WO7waou2Jt24SWk+AE+0NfGI41ClVJijTttWg1sStK3SoiKCtehe0Arra3j4XtUXVZnXWHvPHNoViPbXPYya1rztA7j3FbMasVHbOenw+IZRGnuf4LKbwq3L/uJ0zqS0WrVTrJ4eoXi+KhhuOL9PZd12LqG8z3sRKtF2fW1N+uTWV2i+ttbXtk+osMWH5nt629WopWu3oHNxu6884nF03dDOqXSFqtc16aev4w+L3rnSF7fGJZ4uy1vOhtna2hiAs25IIraA+rX5aUMdak5q3qy2bXF8o09t/xwADzOGyDHGOoiij+td7cucJITCfz2MaTR9jizuXpTTRcYxCEVATQgobLg5Qqb0/pDVmChTlnCII0+lOHIsgaGnJiK1tvV1ldDtI5q3DdEj7z0UlfSwRNxgNBZkTyrKs7ZZ60Sdg9dwWc2xXnyo+RYjZyYLyjaef4v73/T5nJ7tIofiqnWlvFMB5j0OZX/oJV5/7HBd/81/CmXvqcuYaxuhms0dbINztBVqCCa68wfXvP871V55nh5LATrSktEh4goA3Q5ywe+/dFMBf/Nu/4PrlPbzLCApBDFEQbSdYWKuM6ljL1vqslkcqTtcoVcid4KX1O8SJv6APawzZtLVbtwMXLAdv7VfYL5OhhrtceGhF+Qy0UOYERHZSoH6j0IDLJzhx7N24SlZOySY5c43JB3zUNaUQsVbn7jUTXGrDfD6ntJDWmVVN6e07Wcretg7ttdtVW5QqmqOOygail363uG9rEZJGumlLKfs8m8SXV0JA+8c2I7CGeOtS2YUqlu6LzELXXKXm5peJV9nFJFVzpJ7ekeWsomK1jT+7mBNNWphGCqK+b+lJcZ202mQt9tYwQkffLDCy1kM6UpEVpmfNwC/xXicChpG7jDyfIH4SjcUAFaE0Zbp7Fp/lVGNkaY0rRILlFedKKAvKMIcysMibNETFpIwREUWYzWfRD1oV07Cy05mzzs46dHbhw8KsEqFrBrJ34R34EV11ZIjErNxXr+3xhUe/xD/53d/hjukuaGNfACQr87hHekpu/Pgp/IX3cv7Xfw9lGpfqGvX9UWOLErcAimhB8dqLvPPNh8jCFfbcLj65LlWO7yowE+XCe+9h8r57+ewnPsPe3h5333s3mKAuLmavbBwQQHBUgUjqCSyaNkNbO1uNwIULF5iIpkXTLp8mvzWl63VUW7w3ksmqMJB4sc6NXxelnCXpVmxZinQxh7kTMu8JGMEMv3MXu9MdnAjF3g00BCbTCeQZoTJSqfwotbWFtoLCaAZeJ9GYo4NRWYQsEMt217Y34WXJuVMqbV5uiUHq37/bx3ZVn1fXm72uq7c76upo50HQuU/0Efs+ibFHDdep3bAmiKUkRsXSGV2bC+m38VjUPGCrhyfScG+1tBfLJ0Yw3dCpVdA+I8hVDI0gIGk9ngShOzJiLlp85xleGkk7hMBkust0Ol1c5xaTchmWohmCWoiGpuWcopzhhdqdqZEYLWlaUlhookW28+DdZGWeWH3/Ik4C4RaXM53ssrc3JwS/NJiymSps/UNWroj4ZFwW9/frl/d4/lvP8+Hf+AcpEclSDaIEHA4ls2u8/cIXmJw5S/6hj6CyA7gtJJM+GERXD1cGYYGeiRFee4FXH/t3TG+8hjkjiMeZo0qTWMfpOrfDnb/0AYIYe3tzCBKTmavGDd6BLFCt9cu7nUt7YQO3xlcySprRG08JSaUIpQYmIlHlWFkNVpJLVdeyFAyUoT2/FiOjLdGghcXSzNHurhejTmca61+yda98uZPGYDrdjWpPjYyHahmb4z0+y6JdS2p/GUrMirqelUUcD+Jam25XVDmjLGPY1Mqavf4t3RjKEDfYDdFux4KKtquO1vg2ZdOG3kWQ0hQPzdX00JZLYqU2tqbOtp5n3Wa3rB1Q01qi7do7e7UJS3Gyq7/2I9yV8WEs3H1ktFCzrd5nLcId+31x3A1iBirnQGTRkKpriAb6Dy8YH1WMWWpTpyLtBMFwmPOoGtlkCkRPmTzP0fq90tGEGhoUDdGVy2dZbZjlnWM+34uEO2WvQhbXaK3RVUt1unqOrxLu7j3THSHHs4lXg1m0rFe6vYV6btrCsLtaUxgR+yfPPFlrD2vPQ6uDgsRNdG/nXu777T9lct9/Hn1wofYMuJl85KEkboM6ipmzgOy9xVvPPMLk6muIJymGKqkXqo4SHDoruPSDH+O9iyrxFHrTLKp82uFCe883WpcX7MEXiroWdbX6EygjcTRHwFDv0RQ7d6F6q3eRJRoS1VVtwl1bQGJJU1CZz9esQ11X947UUllWZ5USrxutRVsRqaRidvkEn87YrLSYv1fjQ73PWpu2EUKBWtIqGC3CmCToRMAaKbRj8bfabbZ4nlnJ4W0t3woTs1pjjYVsTn0Sa6sOazFbkd/ruKMlnS9jkUQv/r4gA6wj3MuFSep+lpjI1hM636t3inf/UI1R9Vpx3SzW1/Wcqk0VLxpVlc34d7WgNm42A7XkQpnqa9Hb+o42I7BG6HdLzFN1VFQx1SsLZY0m5rhgOIIJMnF4nxNMyScTBMiElCwklTVDFSjSvuSI6Tq9x2EEE3ye00SBXCbcbaZW6rotWOs5ksqeXMLtnFsjVHfsElsg3LLA8Vf79Pr9qDkpdYiU+Nkl3n7u09x74U7k7PtA0o5zk7U/h5K4NS1oVcjDu7zx+H9g7yff5JwUlAjmY6+IVirAOJGcpVCnauTO4WgSjCy7fnVtiqswdK13Ygqp2mIAAgGnyRbdOXKXozpflY7UEq+12AhpEe3FzW4x3nctuVfPWmpT3/sYtjCxtbUmKwZBUjZ6c4LPd/D5lDKl86syDOVZJKOOqGIvy9BIQx1xjOsNvfN9UuuO6JDRWnVLy19yrQugtoyxOqayOEn+rCwxJNTX2sltNnnmMoafcS+/RP9cWKsxrAmc1XXjWhL3foS7rSGq1et985rOfmrX13cU0reGa9ONNfPJLa2azv47RlSbelkak+kUE0cRSvLphBAU75fsGdRQLWKmKovn4M5PmEw8FpT5fC8StXquVsJO1Y9x7cY+cwv1igjt3NdRIlptcydzuwVsui/U2pWVs+2qQEcSpa3sOVandQgh5iMX8YhFm4RaAKg5UYdY3LeDRE2wk4CpYu/7CPf/oz+CnbthgPfTtnAIwq2USRr1YY93n3+EK899kl29gUpGnVJuaWC6p4wceDU2ty3KTs2V5qpUItDCb63f15D+rhO7Tils0wOkjvddOqGvuWuogqdUrUzhX5OWQrUA8fhsB+fzpEKHEAKqc0RLJpM8ZhkCytIIoQQt0zlZNU7V91C9dPeCsX4pcBvoIpq95+MDzlJh8+EZgrXMZZfE3Ue4O+pQWv3R1rtXzNtS3cuv17mldBD0Wm3et5muQbeMviVs0n/HhOZoJgbbjF3okGyCZD5K007QSvI1wUIKlJLOr5z3OOfQYGgoASPLMoqiSGNsgOKobAxCox2p/lPxXId6l/5x7NqanXYTq+51akez8IaiN29FT/vM1crehQRWQTE3YedX/glnf+tfoNkZnLioPbpJc/MQqnJBCDiU8NJT6PMPcp4bmBcgIJrk8Q6uepUYHJxjWZBhl6WpE6hWW4dWDyW/wua3yBFOcDLBEJx3aUM3VIwyFGh5DdTjXE7uM3KnxP+VhNkNxE+iH7jGOPEpiCoVY1DrJ1vj0zdBugh3F+Go2r7+fVtlRTpnQ5+FQx8DsVYLdwTom2ebLeSWNfkSovFLJQEs98Lms1t6/1i9PnTNbKNLh/Rfb9kh9Q5tR8/1+FsSPCxaIQs+7kWVcW3LZsLha4prpDjkZqgpZRnwmeA1gIZ03GYxmJWAl3iUWAeLssX+WdGEtNrdu37aBKmnP5b7JJbtTi3sW0Ru4ZcT4QqwhnB3tq9hqGXpWh6uc/1HX2F63wPkH/wIhU6Y3ESG8nCE28DeeomfPvME58sb7GU7BOdxouA0hnet3HaSYL8cnSxePBjhbnN3vX3WJV2s6eCVQBH7DMaRSXCp4dX36EI0IfM7WK1Gjv86MYKWUfImbRwuw2eSzrsDIcyYmZE5hyW1eVMDMTtY+10k1lRQHzQstHChaPpjndX4xv0qqwFz1jJgPSbhFad8M7CNOVLZMvT8OrBFh23H0dR9kGcedj0efd1JZV1Lcw43meKcx1CKckZIuRCcE7zL09pLGhOJoYtVAjKZYJkjOKGUErWQXBUj+Yx2o1UMckGTCxh1mUW0l0af5Nwm3H3ouk96JO7OPuyxbj8WdNGavvZ1lnW4zDGPHvX8/JnHuO/C+/EX308kpzeHeg8g3I3atrlk6PVXuffv3o/YfeDm8WXNQRXYZAF9ajjXPKKl+tm3Rct1CTV32m72qlqwH0PVfkcxTAvRjpL1uDgPziPi07WU9N4EyNPRRICyjNyjuJaFfEwJaBr9Ptsv1MRGXvM2tvTTWiLTjY03yQXXu+Vndl3v/mG7DNWyYeLyw9beujl6PSe2dIa2aVuGTurD9vXQ/htS/qjKQmu8XGvNOiTP4nor5yk5hRKNvy2uX6qwNfFvLTQZbAnik5GutgIkJaFH0jqu2+pkbd838SCkd70tOO500a6e+8R8Z/91N0e3vSAPCOkREnvaZx3OXqbJMj1Ey3g7w/zdVzl74T3gzm27wb04gMTd2sWt5O1XXsC/8RwT54iB7nMgj7KarBo/dVs0LnbmYTJphY4d9rAqtIOozw6EZLRXVVxvC85H63DnQI15MY+xdStjFL+D8xm5y9ByxrzYQ7XA+xzDE1N9lqhF/1BXnws3ca/Cwlu2LIZ7Xr42cFnqhC7Ovkso7pMA6DG56N1AenSp2zQXaVtI95bpmTibzZHI8TcSXJLiOnGwNxuyb67j4boKH3Yd9D5vjfq264fOvXdo3fuUXayvIdzis7SWHJZF47JQzNLJdMzypRbA+ei7ndxUzSR5szgyF4/AzGJUscrDQhaMSJOxmlSpersRXRujmr2qZz8Dr40MKesf3cpM7Ne4nSCJe9BB3GpZpWwi2VESmFLcOePs+34VshNNuNMESP6+b730Mm89+xXyPAYhQHPiCyeXo42RJL/KSOYguIlnDEeFikkWkZhJwHnER19ph0NCwXzWpEbFBHMTfL5Dlk8wAvP5NbTcI5O4QUS3h4BaGbOFKYhLlvyNYN+0oU0Me4ngOh1k10stXVoqU/+55A7WV76+r9XWXgZrn/m0v4J6/wl5eOZuU3O/g03yIXcNXX7bWHZHyUgPEdr3q7v9uxE9OkyFLJ8gzseASPkUseh6aeWc6L0hGJqOsDK8n4AZoYzaHJ/5VhQxY3bjapTuDCrbhihxr29vm7EQmrnfKwxZq2zHT53q9e6a6nrW4mbR7yObDIo5BROcC+wFx+T9u7z3t24uYzKAcDc6bJGGR8lDxhl2EckwJ8koVTDpiERTq25WfhnY7IFVnASRe4M66iLJT1ayHPEZeB+D32tUoeVZDGPqE5NT4vBENXpA8c6TZRN8YS3myYP4qD536VShp1m9RHXIe/WhYhTal3ql+m7sZ2izsHn1SYStZw59zogRkFw0BcgcPp/gXMa8LHE4vHfkzoPLsBCDFRmkctHJrSgKcnFkeU7lhpdkY3Lno62HUat3Y9avJlVnux1tLKi/F35YfYeu9WEda7Rd2QpBX6qjVhz1YBuRCtdhnaag69l9moLuvcNAQnTjE49IRuYnUci6iRgocTfEu4EljrB1wLFs7tguO/gUeVjrNq15aCu20ep960j+jVaVrn+UOsyntgLT1ARqqSEVp73W2Cbd1yVJdLu5Lba5KtKbnran7jaHv65pK/d1N6W73dII7u22LkgVrYesHcdbQIsz4oiQAolkeZ7WZYSGEu9yvHdARkjeHyIOXMwOEEIZA7W4vI5dLy6GJA7FHAM0BfewFOUx7rKttV+h47iq63vXWu1UYu8z5wVWzDEWtqEu8b2Fm8EQ9+21vUS6q7ys9o3QxBaIn31e9oiw9bSe9YbZc57Sf85ySOLdc7tJz2995TuuLecZ2aeKTmxSRxUMJC4mQ1SRMkTpO3HaTjJMUm6oSoXmBJMYrc05wVn04fZdLhutEKFdbezDMhdfdes6znsTqbrrOYMZoo7VtZ8UsRCNqq+uvrkzYgQpDmIwTJJbpTO8xsiFOIeTLBJbV/llxMkdLKPnRgAAIABJREFUQvT08JLF826I8ywooiWiJc500U6z/t5B9pbm6NrQTpvQmGVBoGcNLF8XuvfbYwmYs44eLKF3b+6k5vFoI3n/NQGcbrK729YIdxU+ruqBzo7oNfI5fNq5vsmlPUJ+r8FUT91dYziEc+xV2S6EjpTmXxcDOqgpVpZ4P0kO/hmSCaahJtw+y+PRhAgSDFHD9yk9hravQocEL9D4f6/BENXYJvXtW3dXW6vFua7uPi3BiBEdiOfPhhYlMbaCx3sf97myRF2VY6Ai3DHGv6rinCfP8po5NAwNc6wswEKU5jsn4eFm5r6auA0f17d/9j4Tjl17tU5k3Lhp1vp3Q6O/o8DhCbf0nZSO2Aj1rIlxhyVFUorL3GEGoQiUVpL5LErfzkfXEQNBMSd11qB5MUNCaITFTQlVS9Ldj9Au11tLsW1puVX3uoxh1f29RjA9HHIFbVHazixVPXX0bV5N4o7qYd3lRtzeWM3cl4w9Q0ipNkPMxOd89ABRY66KqeKdI8s86ppKyrJAQ4HTkphlUbrzsPfogPfzNViIedHWNvXU13VZetb0Qjv6CPpN1l71vteA/adPGGyXt75KjxiHI9wmMV62VEFVqvMXZYgtsvQkR9sGJ9NvKLHakv7Tiu52dI9Xr9zeWbtTAR/DJPo8ptWszmireMROlDIUmBY4n0WCLhAjn4WY6CMUlCFgoUA0IKJohwqoir277s169R/W/X3NMfcB6l4KG7jvFGgKLCVFXS3SEZs9op2Gpbf648NRxVG0+j8btmPAD9bH0A8xBdzG+WHHuck6bBpvO9XdxIXXWp0t6cxai1mMhU31do7cT8jyuO2GEGKWMAsQihjNsF6fbpBG78Dnxvsx6a05slC0T8PZW9MWxPwh9R7huq1oXVSXWys09c3DAQj3qiWEMxKRqHJf99y5xiXhqASbvnqH+Ir3qoAG3dG9CRmCSA5ugplL+bJDup4tZNGxUEQXk2wSAzVIdLoLZUkoYi5fnyxQlH4ptj9H80mBtP67H6x9y9o6+pfXye6PoxqvnqSZa9qx+UoY1tfrNr7Dv/uQ/hu6BXd5yrSTvliVTFYA5zExwjyqy0M67hJtEonEfckPe+1DdNH+tw6ZI73ngQPqqJ45BN1C2JGgRaStHczlJm8hW1GVR976JIgmpwsGBHFkzpN5j2qJFjNCOUedx012cORANDyzUNa8byY74OMiF+cQD2JZ7Zt9sknRiBG3F8QMwpwQ5rUbZoykFoO2jDidqDQvN3vH3YpxWkW0VaPfsLnkHrYhjiMa3nEYFKy0AUGci8ZlRoxyVMbzae89ThyqJSHEFIAuz9CyBFXKYkYmU0Q8Los+3E4cZTFDTVJoxcMb/R0Hho1Nn4r1+Md3WzgJcxVISS+6cLLZxJPRf4LYop9H16HayWjrwdE9R6Lqf3MMUfwfnunpjZvWe8YtSQ8RML25/tsVtuoOlhTlIzZEHP4qpruAOJzPcJKjPkdQCCWEgGQTXO7BxWhMYgGdz3D5FPE+RjtzHkkBH6zO/DVixIjjR0dyJeA4pLURB0fFbFnSaioxy9vNxpb9uJX+RAm3OxSWjPCq02ghRVYSEJ/jMk8wRYsCtQLDIS5DzaEUoFF1Ls7QAnwdlMXwSeXePGFkpUaMOG7EzX51LcaVOxLuU4Uue5qTe8a9Yp8MEgPYV07oQhVAxBCJ8XkXLHbN6FTf9iQ4l14depd6otuKVXG1Va5pi6noYjAMVkPnV3V3Xe1W07jEi1nynzCSK4VBlQ1PiIFSNChlcEgeLcjJHKWVmM4IKIbgsiwGdyAGZggYASVo6ufCsOQPHoqy7jfXkQnHULQj+UvUcHVYvXe8u0FnGKZ9fcEPAZVulZR0+KUYhknZUdp3GiW6XmvzjnbAkb3kIH93+l3aNq3bkv/HMpY9D1q/9NTeMUeqUGAbtUOwjvHtn09949U1Ryqt1iLa+8K+dVvKo71SR3dWKdeRVSr2aLxepemEyiq5Yz32qMyHuFP2xp/oc+XqKhsbv3k7OmqJMunqeuyve4j6u8+Lp3vf6mpfldttFT1qcHOJssmRh2/tw9Yjp42o0EjBkXh7JMvw3lNFqhEjRUiSqKxYcIT2GBITEmTT6CNdztFQxmw/Fp9hGCFES/T6sSPoTCk7YsSIEYdEQ6sjE3AckeGOhnAP8zK5RSHJr9MlI7QM81nM4FVJ/hYNw4uiwErDZ+kiDuen5C75C6qhaqiWWFmy0MEmaMsgpAqveBBUXP7QtKonEl1c+4DX6jUSkm5X31uiz0Z0jrsg3fNhHPLD4QT1X/d677FJqLQstbB/Kvy410PS/06ie9giUeseFOlQpfRb065BXb3ESGdZHhOvl7GuyKVFdaLPjLIoCMUccR5xCpZRu4FpwFQxLcA1ubRrVm8rC0COLM7HzcfRGfwMDcl6stE95lKnUVjEgdbBLYDqGLDjlwPVJ9Ken9q5V/Yxgr1Tr3Mcu8v3rfPuw5FhO3mX4CDWbSgr9X+Wr2/DPa6P8e7Y3zX09OtqHTG0d5K0URSHHCTBwiExqsqPDPEUxInH+QxxjmAhunsZKVqajzYCGCKGlgVmBZ4sxUEGqUInWoFIdaZWTb7q38NvqM65erOIqvfTjL5zr+Nx3RgxYsStipYAdRNxSMItC//GQKdGDIVavY+1StugJCr9ZQdUImsr6nhmn8tGh3GetX6mUZ8Ynlqa9h7nJ9EIJZSERLiddzHescUwpcS8AmhQVMuYa1sBQgyFKJaC9bfy8dZt7X6/jV+FmE6wfp1NRO8eAeToGM/D1xyHqYOL7qx6jaxxRC85yIV3oMNAX92dU6Q3GdAA9GYH3Eo1faU3vAZbSfnX16dDGr2NceyrY+B63IoL+ZBx72n30fqynzxN8EEwgHB3bObWum4O0JYuMeWQXuqoYWqQPgLS1/ldls6bl+2vu0PpZO0kAE1qimjh6UEysGgXbpIs7oOCCD7PYzo/NaScEUoFP8H7M2BlPMu2slbP1Wr1uk+rdob+JvfBut1P+ml1l5XowGduAf3j2FGWHqvoAXMhmQ92luzsqpu9H/RYDA+sonvjhB7V8OboY5J6yw963Db2he7yQ/anKk3n5u3oLnpod7CBc2FIX/f5F3SXZdAa62/HNhZTz1FDLwdxus6/jkRVPpCJPPHQroEVcAuTIL61ikO8w/s8GpRJJIoOAZeRecGLIKaEUELQKJnnE5zPYG6g4dAb54gRI0aMOEKcZuM0Q2s/7nhwv02DqZODika7lG8XS0Yl0rbGdojPkDwD56FwVLl1DcE5hxMBDSkvb4mY4PIc8S7FIy8gzDv9pEeMGDFixPFiQeNohugpJNyRKLWCnxiISR185NTDgBSsQZyLVpNmKYtfqItICleKj/7aplHJHMoALuCyLN0b7UjVDMSR5Tm4DAFCWWChxN18I8URI0aMGLEh6mOBJLRux0Bgc2xRVT4sschpgZHcQXyOzzxeXEzJB6jOk4bcIc6D8zjnMQUtSyQEnBlWlMlWLZ1TuwxyFwm+z+L4h5hgJFL8yk5gxIgRI0acXPR5sBwtDhnytKekaMrPvXLHsWQC2xTRsGz5qqAuqrlxGYpGS/ByhmAEM1w60zYcwQRUsTDHQoGzgGiJljmWJaM0DHPRUELDPPpoB0VD2Vi7dlk/S7fj13GF3btdcTt0963+jn2ut+NaOl0Y4kK9LfpjEmrjRkGia/hNlrMOKXF3qMPXvICdQu25YYh3OO9RiRaWVUAUSaEqzP5/9t6v55ZmuQ/6VffMevZ7zrGPzbHjf7FJFEU2JpYcS4lEcoe4iJTPwJfgC3DPFRcIPgf3mCsQd0AIJogggRGOZEc4duxz3r2fma7iortnemaqZk2vmfXn2Xt+r969157Vq6a6u7qrurq6muL+tmuiIHGPxgPMAFjgwOgCQZjALkQjAEk/hx7gfnIEQkSPbeVzIf5QfAtN/S3UUcPXlUjn20VNPx6hf2Ty9/MU2kGuckE8uP11JrhoKFpVjByER+kKTULjG3QhoO86+DZnDqJ4FjqZYgyfjo4IEATCY/cL5xSmJ06cOHHi5TGbrp+hu3cr7nw7GDHSRn06DGYdrt/7wjvC2q3gEND4HIBHgG9AEPimAZHg4j3e3ztI9wXkPJrLBcQNXEMIktKWCkCzW6jiMfhku81c4zUJMx4cF3HixZET6Nw3kcXHhtUytzYZFadA5AlRxt8asozTFVf5ZAxUJqQx351oESRescwfODiNJKb4pJTbK8haUo+PBQ49OHSg5hLd4nmfmuIRLg4hHvviuP/NfcyKBopHvULfx3y4MlPSZFxeUKG0T5wowUWEq/taBuAHQAhj9MnZ7o/Ft2ioHp6ARXBE5uxHIEfBTwfZcPFL+ZgFHALIC+CSsnUeIEIIAaHvYiJ9EQgHMPVwvhnKUUtAD7B06c2jq/yIdPonTmScSmMb1CTGO+Z954q55BtSIB8JX9PI2JfyFGTnV3/lViKO+b9BEPEAOQQEOCE4pGNawgABTAxBg/6dAX5H+4kGfS8ppFFEYnmJ1h93fUy44n2cDZwDiQeHDpyu9BzygRsZ+GqMH77S1nNL9F5XUNYc3dcj+G3URPvW0n4VaHWUtbzhd0rSY/WjKmeiJcVdp/0qUGe0W/l7UgatbwVxW1H5gscNznKe8zkAuOwSQ64t2posDGMgzdFS/PuR+DZvB5OoeYsQMXh/iSexipux8vfkKN7y1fjx6glJOpkc2rYF95IizdMxr76LnelcOscV4IiGKMhXmsBOnNiDjyrKH5XvbxVDf5HyDBhO65TPc8hV/pkZ21DDx2z+fsYi4SGKu1w1vIYrj4DhTlWBEMH5CxwEId2SVVphHAKcJ0AYTlwRxMbwjgC0CBCEvgNz1OjxYq8eRH5Q3FHRR1f7SzTDkbhlFtx6lOOetF8ENxly96jjCh8kyiRVk+XvheJeGFi23Qvxd2KK+Zw87EoUZcgXijt5NsvjYgLdO/RxZGGs7aGKu5x8hr3iFCxDQLUL+L5wMVUrJSUu0Q3yzhw9kOkaTUBADhAJ6LuAPrwDSFeYtm9xrxuAcw3YMwJ65FoG7oEv8W0pZ1r8h+Ch+2AL+bvXu2vJrpnAj6T9AojbM8vnyyiMsbwcFSarEdceK21qujANvErAtcXGq/B3QkEZua/MYRzC4tmkrOj6p0YWhpW8RA0ikqPKbba3oY7AQ13lr5T0QCAgauCaNipvR2ACmrdLzGAmDJYcPFakc02nwghAR18gzVvMhkYOrmnhSRC4A7LbfGIaDs53vExDnDhx4sRXiteONL+dtxsVd+l/oGR15OcyrGSjGzr/QpISu9dqbxYdTi51WgwyGy4tyz4XR/Deg3yTfh7Leu9A1ID7DiKFuyXxPXhqBJDQoxdB036Ke9lEcG0D6RghpDLpxfHP0d5bCTn6sLjnXk/4muwco6HCiwQ+CC0D5cbtIaX8a7BdDY3tF1pbnJiArgua0XFSzN17ZbjcZxeOJ4R89Vy+f8DsTnkqkiKzkc8kC5gYfdrHpZzTnNZde2a0n1pW26mIQy53UePblPgk5v8WisqcQ4AI0IDAEoDwHpPIFAEHIvHMtRs44MlbBj4YEBZ8CT9D8/YG17Qg8YC0gBA48ODdGUTnZWcFaxNje8zwLd7srXzUHpyrk6dHQ9tts0w5W2Xq46CWD402Iexule39uCY3ej/qtGvaY80Q0c/P7OOjvo5W2eU7bdo0evwm5ffzTcO3hft6RZ50PtZoK6XLrdi0AR2Kh/o7yu/rxrrG37A+BcVbHvOzu+356difOQ0hOZJ5GJQCgCkANHYYregsa6GhLkzEqcIbA8JiUhSiBmg9GmoQgkur6djZ4jzQB0j7BriYmtQl7UoioF4g4hBCB5boF9f29rIOjnUVvHcdWorBZ33fDXMzv9Cu/nGwByhvjOhwtdtCFfERa7TnR5pSOMMBqDB8yCh/UB0PwYOtGe2yiHv3o9rWSr2P4uOeddSO6lm0j+Ejq0SZKMw62mzQvmKAzXRJ7kd1OVcs1B0OGjPiQCA4cSBOp4Y2uRuPG7E3KW4pPjjnII6LloyfiRqUzZvd5JQD1WbQBNKbvo+lBScUUhRgXElzeAd8G+/HFgKJoO97OOfRvL1BHAHDmW2k3mW4xkMCAPLxhi/pQMzFWj45vbPrHbETIQC/9xDnIIFj9DwJnGTbVGYGqmYfPhZS/EmFWBdnAEwu8x3sQ9YixNWU2WdzkDURecynVCGCgLA5E77m6k0TikaDqH7S1945tJ9cb7+pnZ7y38Mp/GXzcMYguQNusiLo6uuItEDLfrTWPGwZ9WY/eniFNhFt6sc1WVBhyCqTzgeIFnzX19GSVTdkYCxpq3Jj8qGoMHJGHXU+hABfroCT0U4bZTXWkW7ux/wmxsifPtZonM+MfpzOg+vzl6R2HTOF5tdcm/eONbNvVNwCh5iH+0sX8G//6jOaS/T5p6TlEHZ649OyY83EHU6ZQBSlPXI1Cv33rof3Hs2nT+g6BvcBTdOAHOCbAM6TFjP6roOwgMB4ay8AXHSrM9D3fbxbOw0WKnjiZCjEfYB84D+e5/Yl6yLFPjmNFiPRJBlK6HulvWg4Qif50vZ5M/nbLneJEf/5NWMnlO8gUmhLGNxtuR6JE/DGSd8uZa3m3fbV6Mp3cxrHZK7LeezniptS+83lVSsb21pfBS6fOql1/GmwPSf3o623uFba7pvlSi0qhrre3C9PAiZtLjuijpasGlsQs5Vu5EPvRwEvFohr7bdUrct+zXOyTlvjI6rdefu5pBBr5G9vP5a55WlDUqP8Pi89PgcH/9PPV44jHO8bu0lx56oJCH/6Z3+N//dPfor20g+uZVBIinCK6FZeNp+5cqBlZjZLwOKunICJwCA4akDew3/3Ge9fvqCBw9unN4TEw6CnmPH5Z9+nc3+Cy6c3NO4NjhwCdwjhp+C+AyWnAueANUqKWxyAbKSkBCuBi2QAcbhmbwCIZ5N14WYyIiSyYG0RquE3K99lKkSjCcQ5kA/lWXuXni8xGBOQwRV1nHhuW6mtQTft6spr2FJHX3oh1Fz0Y33KPgjQj7Noxm5019Xxp41Ha8V9jDdoWz/W9kscajPayXA+sh9v4yPWUW/rI2AYRAsGKS1yND5EWXZul6cy2Gvxzo2yeq097tV+6pp8MQ/aYIw67OIY33eEH/3CzyDUPtSDeqPiTpOOI/ydv//v41d+4WdwdEF0k+fVB1A2d4w1zyvHglZxvcvC26AoeQwLw0LhDcKcRIpcWs26eMxLBJf2AucaBCTXaw4+C4z3z5/hEJVye7nAUQvnHPrwDuYuOjKZQcyAxL17QTYq8kBNdUu3pI0KmYvPRXvkFXxRaVUxy2ygaEWUuXfNCh2mTyos5YLIFmOCaExgk3cBZOyc65DMifKF+rhecZe/sNZ/GVvWaqs0ionQFYobbDUJDX8Nbj+tI832KKVuA39Y1pFXaO9X3aY1vniySVYLqqacGffYa5zdorj38HFYpEvNno7SjzHZiBGcNlOwVjvl+WgZXolDZFUz745qP9V0nMyD6+2ba94TwVMPEQf80u8CzuLw+NU2sDM4zRHwy7/+i/jJ5TcANBAaXb3TfNhT5bDMnT2Wmf7Gmjw0q46G9QrlSDiJk6FzHs5fAPiotF08KuYkKuO+e4en6Ib2zSWF2RHeuy5mOnMewgEufEHrU+a0pLwHbl1W3PfpqPiSFfE1Ajp0l+JWmFpnsmpMDwCSqvcJpm1oYS0HumRWNr5zX3voNADo7mwGjnLG16CuD6btV5Nv/kjU8nFEPx6BI/jQZHgv7PbLdzBMn7qBCcWwmj2a77HPvr1bP76CrLpknfREcHiHsEP4uZ+AVE16P6G8bY97uJ6S8a//6I/wF//8D+H8dwA6pJxiiuKmYXIjICkaAijENKGRYlEehiApbh4AQpkeDatUAqF9a+F8A+d8VBQCgFy8nlNk2JN2FF2+vvHRO9Azur5D0zRRcYcACp8BzgcQRt7me88027s+BvVrRk3Nr5lDS9Stheb7VQNnmrcYSEp7GzeW+qup4/4Db1stfzeUHM9ZZNx3qqmpoyVRdTJyDB7dj0fAar8aPm5Z/W+FoYbNS4m0vWiNvxjjpEMzxI/ox9eRVY7zGTE89/gcPNzfbvE3/t4/mUXx3deSvHnFnQObiBy8EBrnwOzSSreIpqVSKRNy/GxU4snpTTR8H4umriNAc/Dp/uK4Cs7nxofoP46uS0cx+EskJCUbA4ecc9GzDgyJJ0QAZkbrPBw5CLl45ptHlT01kWfhGhV9tl3oaN1Npnyl2Q510dMr71SSVjvIgo21+tWwYrFRU0eHJdtUyciUhvXDMOVjSBBwf9VSW0dtpfeMPDCP7sejcET73Stxkc7Hyjg1GNGP5ervFJoeD7P5+Jiy6sSlGyR7OAJc4yCeZgJ8f6Zu2+NOrm0hgrADu3gUgF18jkk9slIe90NHyFhk6GwqfqJNdGk1s2inmLJ0fG/c5xZyYAc0BHQS4n3ZIQAEeOej4eEvkOFAPxBCPJ3uvYf4uHruHYGcA2XvQDpRkQVt0VUbU/FUdbGgeGn5bHm8Qz17nlA1yYnij1KID4+0kaSRGJ5sb4FFPE1FHeXK67YeI5rS2Mb76EW/74CureNq+z1wQnx0Px6Bo/hYq/sR0PvcHtPqrVdzGtnnaMrTdeX9UWU15yxhCIgcOvhJfNCjrMebV9x53StxIxkQjg2YRtq4KKFC31iODauy21eYAsAVl5lk8RK4lM0MkMAQ7oGQ8kJ5AsiBxEXFnRiV0CPFpsMJQyj9LTwxQ0hi8EfhK1jn+SgsrYRFkVUntzJu6963fFicLFOhnSetbauagJ95HUVWVjayMThtjYbh4JvmLbiz4s59YKxM5o9Z9LJb2+MorLXrPfrxCNS2tUrjYJ60FywCyHL7zV8uWEScaHXMHlOtjtO+ybRoMNyv0c54ZVkNxCmWy6dgPo/Rk2YxeTxuD06j2T/yyi+lPc0FZPW8ad4BtFLwlZDZN+O3JIWzWgAhQtte4upZPBp3ASggxpE3iDnWots+3hEWIp8sUamLwDcN4FIgWugA7gEplIUAQ3DVRALvnSltv2DkHrrH+6xgsyNapYZGXR3v12sy30Z5El6lPVQQdF85rJWWXZNXyFNY29b3xJaZNaOG7y1l8/dpLa+Wv2HJtsBjZZUAtNFgEIDyLZIPTth/k+KeOAYEEInBXiCP2OQBpXKdBm4NnwoqdqjD/LMAKRBtfDwd8y4GorkG4Bg0xsKxnPcpZ/lb+h2BfAOhmESVhABJgXXkY1ISxP1u5lzrKd9Lq9E9Z5NwhtW9ogoT9aj9usVeVm0TkUIDqKqjuV1/t/agu21r39J+e8vW7jFWlV8J5lzQMWbqV2/rh+/RHtDncwzsVtAWysWXP9q9v1/5+/3xBGVuyB5O4jLw0didqzxGUAsGT/Mq5oq4WDlXeNAnypKy8KcM5kIg7wHnISTgvhvyhed0pkIEMKWL1x0gDg5AH0K86tMnvrLrnLvBoJqyGSPorzP+GPfJJtyTldqJ4l7ybvFxxDtraNy7rU0+1hg8mCmLjzsojavvvBeOkpt70f4wmLmSHz0tHv4+iRdZPcHHsl9x52xpYAgnKaRSodGwcp1iXtltrUpIOXLne6YcQI7Qti3QOATpIRA0DgjdF1wuF0AaNL6B+HgJSk7yw0HAHODJwTc+cx2vbQsdHAcAPSDLoIupQyh5F2SeutSuG2lJZo6Csv/DCw9FPQ2jWIx52Upb2fdapW2UtfbDVD609tjIwxoNC9Vtrb1s5aut7Xcd16mY7aTtX2JFFiyZrMkKKLKMmbD4OwIHtPWaTB7Xj/fHnuuIy1V3rYwcgf3jMS8a81yfH37AFTdQk3RgpnHH8zLQJ6lp99mvicaCkx7SM5gdAhyIPHzToO8Z712HpnkDQBCSZGowhEMKUieQAzifNRdAmCHcFalccx9JKlBGc49L8hh4XvrzbGmpmK+qkAMF1VxcNcrVoGH+ZCPt3OM1Iq+527XbiFQ+Vuqy3O6wGLihPbbSrpwQb2m/6xTXodVljY+6PqDNfQBAzRmwva3rcFRb17bfK+JWxT3O8NMGqJGRI7BbRiYxW1Lk8PhgK+6ISqbVhquY8THt2BwkIMwxTWlwINekA/Ex61kXGE37hkEBs4D7HiH0aLyHJw+4nPUnrsAFASxdWmmX578SIwrLMhy12Goz3kdzl/eLT57XEKl041UpYdTVXDMIquqYjK49ordKQ8G2SWLqsdmK2vbbhisUtT4wfmX1gSkkW5dCqzS2kajFEW1tycJ9+vHVMa661a/upAP3Ke1xYfYKOFRxi6TbXmS8mq08LCVAvBt76JjkPBFg6yXu8cjB9JuoxBsQ+fi2pDglCPruPR7ZIgF3XwbrljkAArw1n0Y3HQMS0rWg/XtS3jEAQYd68Z7xXEe4q6FmSJn6zprZcM2FW1N+WZYAPeucQSKwcTHHg0HqTXa4MgnNpu17TgqbuoBWywpXrIPIuB2wQJnTXZSBMJsmhocE6Ir+FULKAXvIVAyxqrYGmfccbH3fqpwW5YcV96612oTgtcLrqK1jdZtMDeuo/JPvgCTGS7l7b3Ysae9W3DFqG/C7/PxH7GjQkERl+jQZcQJw9z4+F0HTXuAhMSELAOE4gTAHiPQA9SCIkZuXAOs2p5fALdfG19zKZd3jrJpbynO9bO0t5er9v1WXJd5SR4WP4na1EZXXrQpwH5lauSZxiFEBxrZYO+Wxra2pIuChMiFgrInM26nuKsi7olYWJn0wPFQK2rJKCxor/VjNX9nWgtq2Xpa84mdQ+bMo36OOmbbO+ZZndaiX252KWzDcvz3/JiWemOg80u+TJkjV/r7tbaPh3SPt8SJ16acCGITRhVBcwUmIN/sIhEKKeLHe9upOrnm4zrgvo0OblPMgtcpveZaIUNjPAAAgAElEQVR5ucbfiLpWraF9xzqqN3uFFdpLWkTaBF4HfRwF6JOWNrnZrnuq7EetKqUuLyXSPO0+J00AhJXyeh2fEDcE3fiKSTsyxnawlJQle8YplkVF17ZgNP4sWZ3LpMCWpyXssRx7XbftlvxNFr/Tp8ZbbqsjDVnEJN78NcN4C8GtOEZnHBBVDuQJMV/bGa/IlIVqE2ODMCv5LdA7ENMZoRDigDDQdmn/JP6bAeb0bLhXLP3PY3rp8RCigVdV3lMllZtHzAbUnq9tONXanltp32IQ7eH7qDpaq1FrBW2sqPYe7K32Dm0LoixeoNCuaafyHdM766ug5sTcqgDvjeuyEB0Shekyb3qzH2uM49v5s2nn8bnuGapbjyulF/1b2481dSyMp3xvhuhl463N45XGAkk3Qm6R9+Nw2B63AC+nwwQpSpySMcFReccmXlsJjd9dn1Ief23jNswG8qQSWkcx9PvPDQtfLWsNQmVVJoDadpU3qy3NwxXar1LH8cspCVpb/W/DPP5j/GJrHenAOiokiveNe9x2rLL6PGVBnD4D1BW3uhq9M7a2kwAgUY+E7u9HHNSP0zEz7nHbfT6aF2uGBlbG+pK/tbvPb6+jjH+nOo7XMjNIlSdcrdYjFOFtl4ygqHIlj/oe5gEVVV3waSc1fUVEQ1TwMXEsV3vwiSh4m7eNpRhrqnK3svokbkqIPrMfxMv2orV78+orjhCl2oWr6ovW63KI/qskUueAUOYAQ57qG7tmW6fC8JTkcaRZzMctC8xdZS2eqarPaEHL3qKLsQpr3hoqypK6zWpitY4ye1p6a4vnyo1feft3GCUS02aPBsRjVq83K+4Sko30otKaPRYv3dRWWfp7RN03tHnKQWRT93xp4bvhS1dB28arKu0ZNqxg2Vg1GaFHqBPQ7SuymP3OGOQqJzUr1JqydXXUrPP1n8c6TmT8gPsd6wwIbTzaW0PHK25SP45l9V6QtVtGFBhmiEHDgr7g2OwdMts0+vQIbiILtf1423hcKshrtLMZZM+eS1omd6ZA0ezv/K+9c47lPy2uoTaniOwdih9J0qJeKCUeeywOcpUP09BR5A7Di3nvT5w4sRGPW79861C2mwys+Rhfu6+26aZ4J8WyrHNzwzxLp6i7FPfGIcfBJP9dRJJbKQxrVtFH45nvPvF1o162XsPIXfL9uOm3fHeVF/TaHbIlaO7yPBL6KRmzdN6yG/4ov/vYc9PSRX4Mxf3Y0j9lPxobK1LsmUv+Tf6WNnk1j8T+FXfU2kN9q+96PnHixDeNahOmdj/3BSak0tgQ3NOY2Ip5I967oZ4RD1T/Pr1f5i77TF2G7ZxHC9mrhkSfOHHixIkPgGcorus4wki4vllTLrofif2u8uQymLoaBMJGWFPFrRrBcEOpkaaEh7srHo0qF2ElqKL9TD4OcEveswfHox7bUCOrJ/bhIf0+kc8n9G3FK2tl9Tbc+o7xd1urpMZAmfPFnr5Jb6ppvwUfW4J509HiJ+147VTchIcv2r9lV/w9hSRvedx1T/A6vtm+/YbxsD7PC4ybXvgaMQmvgumsv6VBK4ISbsZRq+xHv7Meh0WVn/hKUExuz9+H+5rxjD2/EwBeo9nPoXUw9nbqDR1CNARmPxrVilvPTJxX3tcjI2tdGJshz2nArxa3tOdX1gf3d1d+PW11og6PcYXfCwcZnYv54la6O3mRyuQuGDaEIZxSnj64Ow9ccX9kQTxx4sSJEx8Pe/TObW6PcoP4CZvFwP53SryDW+TDn0M8ceLEiRP3wBbleosSfbzSzm/l+edXjyp3w5/pAPpw72mKLk+1MJPkKzArHnQa1r00k7jAighpO0i9vjcsehZcxTv4jm7osr5b3jNcEFHUN6cDHGiu1U2KxIsFjVvbfQtq2+8xY/GVPFU3uCrJurW8LkHlEVssWuZJSrxYiPcXvFIf3B+sJBuJY3d7j9GizerS0C5/UbkvqtEr+F8f61M5rx3nWc4cSXznE06fHOAql5Q1jQHadkfrvVBO/idO7MVjpvOPHaQmRt4OgWxW3bXGbg2u0RWRuxrEGu5pnD4P89n3epvepjq3GgLbS9Xm88nlmaPu4yeM38Ou9Txx4sStmE8mzxhPX5sieV28SDK3O+HeZ1b34Otp9TscBztuBVHjRr4VRLdeyPgYeiUe0R617ynrO9/yoMKdvpXGPfGo9tuPvXzWjL997xJAv9SM61YiR/SNeknTBhZeUS7u6QXQ6hv7cXs7HBuQtfUceAV/i7oc08eCUc4IBGGepPx+FA5U3Dm+7pYa1O+PvAY+Kt8nvm68niI68Yp40vGrBQ/3ft/XNx4OXXHnu2Wr96yI1NRx5krt0f1gVUa1UMtdkA00LByx7XPjCqSeD73Q+kr7fvua1Tii/TRZqKrg1oxeVwrV1OUoVIh7lalbn0ZAfd/y+QrhyVekfrxKhrYUWv/hEcPUoqG1xxBnvPEtV6/S3sLI1dcYc+ltxBRcoW3IgpCktNuC+Z+PwuGucpa1dbfeETHAZel80WhIdWcS9M6zjq9pTiBWk87I4L6xeCqf0/ZgnU2lSk7q6Ojl9faQDU6xWzyNdi/W9Etteb0sKWWvxaQuy+uNUNPj458Cu77XKR4xd26GaW/QZkbWRvQRmwa24l62tRbpXC8L9r+uI/thK2peyeByFIjy7dq4J3O2q2DD/Oa6Itw65mn29/Ita9BlIbrFs6EjIkqE/f3x5JSnZUPnzrAU7aug5PkIi/DEx4I2aZDxfA/t8rM2Tk7sw6Pb2poryvnuGfNJacSUeTG1+fge/G1VqlveXfaXN55f+12J1x13T1bcVgfduld+AwezlHuW93t07HL5eMsbIuXK+IVaL6uKBwfdMPPQns4Vq5iCj2eemTXfrT2n4Y+y4Ozv8vk98yedxuHj8Iy2fmb/arK8Ve7vgSPecVSA9DP2nbbhBRU3MKZYeZXrwsX4XEdha3d/xGl6rhRF5GOfVVU7rJjAaP74iF7T5P306twHtVtoR+DV+nf+Xs3VzEq5e+Hae7bqg1oPWK0sPH9e238ft4yVvrbja1aYeFam2E9QnteBsDivQrNZedyGTp+ns7K1f2l2rGgCpu8LjS+e0zALby5K6jkda8/PqOOiPeYvASBx/56KgwV5L2gsdIXZ/OVqtrUr/bjKtyx/P2FJiWJYlHcABSzC6siw8GlDN0op19cs/A2T/JZ3HglCvg12wJrIqD1mdXkl7euYzyHaSCgD0q5M/pvaer61VvJSTjw7DIab+3zuKeLFt8MLsuzljzV9cJW/tW/X2k+jM2dwbcxoZYZ8juNe+0RkKFGnNM9tj106Ejcq7rEhenb40jXD9oiDwCGHkGkV0iZxp3+/eC2tT9Zrv5uwUNKYf6cEKhkT/nQf5UbIfDI5DpsF6loxs/4AORpW1vk89tCteRV+xVU+VfK8VIwmo2uyoBlPa4k4p+XtRLgW7UcM3sdOEKUNVbZbGaADxOE050w9U53gZk1bU1awKo4H496ZIMuKPCPrpLVVOYKHLaORV0KaQm/GNUP1VqyNyy2GEc0+lwZVpC00LlYvcPjSA21wxmLtfrh5xU0gCAh/9uf/Fv/n//2vII2Hdw2iug5Dqfmvhmfy3P3OkZNxX9uaQGL+9Vt5rZllXtMlOhfJIWylyNEblTZdra6quJOrWVIKQavcvskClTmFZcPxmOdi0R4rKxsCFl+uKUAabC5Sy5b9o/XLFtq3lK2to4XHKf/r2CrXx/JcvtRWarJo73Rbxc1jozQCarwMW7YUygZyRbsKQDXHT68rYSagQUCPC378oz+H8FpG/OOxy1UuAH7yN38V8vd/F9ReIOLgwKDUIcrUi1Fxy8rK6s6YrRBcWmUPorGYpG50Y9Wupq+55h4NZSWVHkcQMNFudN1tpLWlAMWeeDSkFvvjBi9VoOuGxfg62awEnoK1vtEcE9Zjg8iwJopnXoqxkb0r8Q9ttb2V9i1lzfJGHS3sc7kfiAq5PpbnK8It+Y+pw3z8pTWWVmeM+L1qgRTUaX6N1BXP7fBvmbyOhn9kp7fDtn1ywxubyHkIAgHOBbz3Hu43fhPi7A3Ve+BmVzmB4Aj4vd/7beC33wBkd0EAiRjWYanIqJwdbmNjD0p9Uz6+S+tvVcivEoxX4Or2UOkzBa5GsrNMy1E26YvjJ/m7Ui6OEJFXmKiPwtbdhFvKy+LDsmzeUopWVz3tlKwp7nakgm72o5IPQZSdXISKslme5myUfLFRF5rReDRq5foQFrWXBuiTYrnYmruSFVJDkULpi8NMeGa/mc+PJtEpXbVMIZcLWtsN91hXbfsiGrLxqx5CF3y5/DZci4fOLztc5RH/2z/7Z/jLf/HfQpwDyMNJdJXrbuepYtqay/oe0Fw9j9k/W9uXfT1YLrGhf4stD9qwohWWSbm8Qs/el9LdXsrF7a65guf4gq8C1krXqmONvF/tcxQeEYGagOIa7blHhWk5D+Q6lmWJaKijJKMxy86c71KW5u/L/K1tzTwCVj9aWIsH2I75XkX+MK50y7zlbljqx/+j6iz6ZOaSXnpDCGXQl4mswKU4DrxpH2HZKIMszNwUvHUiGXhebhSSCIIDSDp83xG++9v/If7xb/3DqMwfNL/sjir/ob+gQwPnLwgs8Y5S0DANL2vihm9K98ijh81zDmYY/r0XxrV2Kntu2qc65tc95nC2ctGuycURvogX24jYBW1kAXV55NbWLtdoT/vQUNwrfEzjRgicdWxpHOR/CoY4CKBUXlF24u+W+e9kwsSUm7x3O85Vzzm+aLW1hf0yvObF0r6TZYAgZbdzgjatrSywp+9Qotqp+DwhohHSibsJrfF1m2dcguIpAPJ2GwngWPCDpgWjAdxjgwurFfcw3uKYAfc9fC8QJ3CE6QScPSUTazZadeUTKd2jBZw2IcwsqGHVnq29+ftk3He9ftH6MEMsONEHtbFfq+6NaE/XxGh7yk5RIuEjBYv+uhos208Ui1cK9/ikTsbImHvYBAAYoOH8wQiOX4zFkwvUSr0qFWlMzZSnSkSovQLbrhpLmZxzR0qfkbH/r02MFnfWuNNuforb1zMvicQ21afIYnIaaOuxKlFEZlQk9e+8bH4vjbwj/V6LmdDaKdLebp7EetOE99heOu0aebLMJN0uIH2+sCC8kAc7sdC8/dL8SLxskpWVP2+MN5nIe6m8Z+6X6ZwdJhSAPB7npzxYH+uinxTRbqYbbL+NzU2ylB0pqgfmdNBpZUDeCcclYEkNUtEu3xhef3X9signdO27Ob72pl5rj1o6d6Jtxh9t7cej6vi14ebJVSZ/Vb3v1jF2VRns7eAbGuMI5TSTzWd48p6cOe3EiRPHQVlGHUJHe36a5x8HNyrtA1994lgceh+3CCeXxjGCYrsraVFmy61htwegWGd6DXfMi6T6tOu7vR2eedZ+8n6DDzU6otgPvVp2hfY9obarEeSlE1j9dtP7amV1SqPwaat8kKHbt/L8GmPoSBwxluqjgfbNxWLJmZVIydgrK8VsOmebL53Rxkwkni8fzjmAc0rYx84hx58/qg2TPHHiRCUeP1E8Hl97/R6BJ6605/gWRPaB2L/iLgNgBksKhUE+7S0zcrNitWFm/TYfHyExFTR2WtZFK+56X037WRRqt7fqFlk1/VjX53tp19bRXj1YVGr6V//HIfNghaxadTTt9JpxUNHn++U6f7m/7kfwsXaLwSaYbUd6HW9ctE8f3Sjv892WO431I4bdK+OAS0YAlgAIQ2i81pFUFwvpEdAclLIA0xjFSpO/l2VjZKEW2buMwqxH3QSkD8Sagx9iRCPrsC5yV9taiZQcCalE9C8qNLpea50Pu4UqlYYpIxWHqKra4z7RyFbbLV2H9bTjSYcKWTXqqPO9t46ZuOWG105uWP2o1V2PnK89HaByX8XHMUtRKv4claQ1ZrZH31tjRqrk3aA9H0vDxyXt+JWbF1TLLopc5e/jHRQ9ODgtd5A93ag5qI2V3ZxypuHUgaErbtaOPtwTYu0/bN+ViAdstguTmTDDPEqjGEmRkkF7Wt6cTqvaWfD4AWP1gXWsbwnt6FikoE9kegbjFYW0ESOFOZ2KqwhFxvOuE7xGHa26MDmVtDYvRNNEUxrb28kej8ZIN2jXjEcLKmUhOMmLnLzSJoB6g4rVXztlAYBTjxNYdZzRzkXU1M/W8txqawUHyGou6QQQYbC4pNMeu5Q/THFvyjiWKjsHDX9so1EF2474JmE3h5Js4JuGHpBIxvPnNd1slfUtoGpM37NdtjNy397JYzcr7fxSj2Xe71pUNPZRlXz4nF3P+LNH2zGKe2hkt+IiQ/Jwae6ivcJ1Yj8Yz7la8GNB1EQ6r4DX5OrEI5DuVAYKjfIMj9aBOBdcqzj0ONjZ0h8dmmvtPOr/sbDMlPVxcWZh2QaJK+uJsnu8+/YxeB0dI0Cx9ftYvg6ZlSdrEJlXgYzzn9NHRniV8mgtvvNegmrR1fYNh9ChjTSsAJIyDE9Wy4q5T6HtSVrtpw30ed+NZVUaZsRUTXvUoqJvKt4Z0/DWBCVacl1Tz/1lp0+p+KT076osbHy+Ku9b+/2W/S/lqc6escdtUdFWqWuttPzODlavHY8a9FiFumtot9fx+nfTYtflnYrL/64YF4tV99YKGvOlLFMsr9O2e4ai1o4PnpC346Dl1FxVl58cSkHRI6D1ilvR0rZ1owzQcs/nZhyhHKznVq7t1DXXjB6Tj7UAHC2yV4xABWViqgjmiKjJ6VyL/TKyV8kDazr+PoYFIMatXLrn63qU95yWruwsXrY9WyurPdfjLggwtGPNUVPr5viKfPbFn9f5EGM8Wp5Kw6C3jPQqca0dj5os1IwvYKxjWV8reG47H+tznybT+2RV0h8lpWf4AA70g36NbpkTJ74VbD3X8Si8jkv0tXHOu0s8RnZEJF5T/IRt4t2KmyhWgDkGmMVdqfkVeV/Tvtut2NO5pbX6rbbft4zl+Ikr62kwIRFgniE+hAdLfrXnp6w+DGczKzg+KegrYf+KmwiCABEHb1wvOVzj9uS814+Cnh3OSGRwpUlsA2g7jRMfG/r4GZMZeR9Pp4oIEF4pknivoXpiHefAt/F1y9AZMnzixItinJa1QMX0mQjONwAEobf2DF8J3+C58xNfJYgoHZt/vCzvT3nKApbk7y9XBMPi++gVgB5gIEb+tToHdW3QlUHFDLlefmEmXlSzQNkhPBq2J3UEautoB6fsp62jIiPYQXh0HTm5lx0YPTPINXDtBb79hL57R+hDSirF8X8CGv8d4FpIeIfImuLen7Gsjsa1snMFft2zdCsqJfuAktbYrZmf7pn05JmrUdlxhEorb2VOq8lfWd8eeS4WohgIx4/NRbJTcQviTDKXnq/xTPfW+hwhjDqkmv59ylrxuMfwUYv70H5OHfM5GaD1Ddi3oKaFkAP5Fo4cpIvGMpDSN1KKvBZKR5xETzt5yJGVe8iTta10DOopHaG4j/jFxxsz9fiYfAzaLv0sPMF5dNAO/un2OnHiKAg8egY4BX0SBN57NE0D13jANcjKeswDHQ+9UhHj+nHM55LTj8Hx83HOua+AZ0nr3fa486pggd1HZkW9ZCeuKBRXVLV81zijtZ8LmJfuG+ecuurRcrdbuRQEUNvPDE7zxk1MB455EVEZIDe+W5T2qIbVkVci8+I+1L7hZdXxaBAEaBq4to2fhdF3PQITnPcg5+D9BSI9GJEnRwQijqqbIw21tYuHZd9YnKjbUdaY1ijc1O7T8vG4jTKW/P1S895LVq2xa/NRRDioY0kmf6lsXO1ngMPSxUvO2dcvb8V86/RGUJ7DTHqit6vTtyWGZrtxTEf3uAMICEIIQMynIHbw9e62VPDQ4DQRQyNhe+XiBKXtIYm6h1RrFKgK4oA5W1PmAFQBOwrqoMQtxsw6tL4r330Pwd0Ks90r8Yg6CAAiByEPIYJwB0gPDh3i3ncDch6+bQEwKIR4pW5Iq24icFx4L/lP85uIQBS5WBRWkxltV5hHtbtK+xr/O/BMWbVw61i6tZ2E+RDbfndbUjnX19HaMvcd09eEYWH3QNl5eFQ5K1aJq6mw6DQsi7ZikYBkNinPiyT+G+AVS5eNwVC/l7odmgUohoF6K4j0GpR95J84GcpqitxtsOp4NPLWNAnF1ZLE6ySZARGCEMGRA8ijaS4QdMMygjzQUIMgS+VKYIQv3VAHbfxMGdGVruLAsUkc1O7a3BDuaBQ8U1Yt3DqWrvYzjLnqgNUyYb9iFJGhDgSKXsuK3y6fTTdktvI3mg4EnvwkeZUof4uHKe8KxZ0DYjAwJ5VMEtHugRFpVLD9IuPQFLqK8eEqyzfansKD2kObEHbBuAf72gQzV7qvuKLKIA4QCWAEkDC470GB4ZoWIoz3L1/QXIA2bXFT04IIYO4BCKjxaMRD4BB9UCF5uQKAbniPZSiP58X3t1HNJFuLw2XraFiyWh7wy21tnIYBwvC07K9R3gXX8mNULYgKzJXaU8YMRVU46gudBxEa5sSSz+aImEcWoPFwvkHbXsA9IzDDeYcgDOIOJB7ePf5U9XmO+8SJF4GQg3AAui9xkheBay6gpoEIgfoO3H1BEIFvLsh70c57CDNCCCl/ebwfwDug73uE/v1V7NcTJz4OHEECg7mDpwbkHBrnYxRJ3JmCdy28b1PA6ONw09tkvo9WbvifOPHCeGUZlbh8BkIPgEBNA9c0cM0FHinwrA8I/RcQAc43EIn7gMyMvutAKUANYHQShk09EnfVWXOtbV657T4E1JUz1JXzFkNrLWZoK7b06cP7fREbqQdLznE0n+IIzALpGR3e0VzeAEfo3zs0by1a5yHBgfz+ANha3GwmSP5DBCKcGu2060+cuB3Jkk/HuyQEBOogLqYT9o5AzQXcd+j7dzgwvGviXrDzaBoCd11K3vOMfE4nLJx98QHB8dQGGjecZOje3/Hp7RMYQJA+BpQ+QfWdrvITJ14ElHPdpT1mQgD3IZ48aN5A5OAcwM0buP8C7nvAA943AHzc+3UBHGIwZZmw58V3hU+ceDnkdX5AXFCzKNEI+gGMu+NGxZ1NDJvj2rrcy2Cp40MPE7HWLtdijaNXojx/MPxxFRrt2jVUTSx0tZvJCnCqo7J8N+k09J6Bfgpg0s7F91YVd+cW0JujVJzT1wnKu88lubMFBHEeLqlZSZkJOfRJKbeA8yASeFzifncIAHl4n84+EABwkhVarcdaFbf2Yy0NvXy9y3d7wJT5Ruh9s5VC/KZKVi0q6ikZKT6PoMknWZSQ+Q8UaG13hCwcQmVdZCsoGyeP5rkC1uimYSoAmAWOGM65IbKcKB4fZmHjNFJ6R46MP9Cd3txmLsjK/6lEBY9HnysuYR0Tswqbilv54mou6+JIzHIYplWVcW5cV9x1vVWTpsJI2wFzraa2R8ULF+/PZPW2thW3lsCGhvPx8/FUMzHXDDMRjidDaD4xzKgkV7gDIeYeSBHgyQ0OagBXZkAL4O4dXfcO3xLgGnhHADwCt+hDQN91g5EofQdKeZO3RBWr2VEr+1EdBiJD25eR/XpZQM85TbCjiWV71LSaEMUwPI26q+1kGgWWUVtxnAmFXBbkFvxl/Z2Nv8n5V739JK0cF7J6xJhW57NKQ+YI3WF8kftGxgfzDwMTlMh4ANz3EO/RfvqEQOkuCU7XWXMHgX1mPu4oV8jrBpyu8gNQnjecw7ayzpiAe0Ewzbj1qOMsMRnTzEQbJhAZ/uKkqOIp7QByHs5fAH8BnC9LAwx4f0Ef3tH173AuXj5C5EHNBQ16fHn/AuLPIGKQ5NV2icfLWcx6tlxpUM1h8CvYck4ZKTpfeao2i5b3wXqLaK5TjB6UNUpHyqTMsjVuoZ2VyZKzOe3KFfeeALFkhNRQMPkz+7wYHau8SpKFbPxEl5awIIQ0drlH1zFa5vVV1XJduxv7bweTyJFInIqG51VEDq3TlPS2gMQB6sAlncFtE8ca7EQHepKZOmd5TZoKMX1s1hJEf7a7RWbKb3huTIavafpkoVNGK8V+ZBEIASwMhxbkG4AoJupJAZ8upVYU7+GoBYceoe9ATuAaisrbOXgChPuktDH47UcZmnp5SqitWjt5Gg9Vl6w1ZirH0iufx7cwTW9s+PasFWDCcn6SrUHXr41Hd2dFNL1zLn4ugsdD3wN9Bw6IiwSD3nY3+Ro/y9/uX3EPRtbtK8i7rj1riK9ZTFdoHDqRVOjKu7+0ksL+Vjimls+d2AnrZpMgnduC8w28b+LeGfcx3WQ63gXn4VyD4B0ceTgP9OEd0r+DyAEupS/lkMlNMjvpapom/zK427/HbWSb05V8fZ+LyAdU3uv13HOc6eO1xXNgrk+s8pK2nPJdE0QgCAIHCAdI2vJaozn2za39u/zd/hV3qoykHZ8148/cjlj57tGoXmls+cHqmNKnySPao64udi/Mubs2se/jvU4aatfhu1eSm3+5kj2LGEICQoum/Q7kGgCC0H0Gc3R7CjPEeYjvAXpLQWk+jrXuHUEY3rcxgpxzFLmbKMEhheqkLnc1k1dxbV6o5Uo7C72Hj/zddkpLWbVpT70v13W0sT+9eJoUhzFsPpo6X1bhyBpU0iIHYUDg4J1HzxJzoLsc3SBAzo9g5Pe/l2a7UXHTICcMB0YDhgdI4ERm+VxHxIlECdY5qG/WDINNMArSvJlk8qXCR80I8sOXU4s7D1zLvXbFerfeKfpjIjuUTVPc1jaBS8ZnGWBiT6rj5JQ94QJtjza9dKEMeZXvOdiMPLLapEYwMx95AGutFv/umUCuxdvbd1E5wwHp7DW4B4RTbJ0gsID4AnLj3MAgUBCAu4FsbrMJz8mylNTMosqSnhbXqU21bA9rrANIWdym7FiGFhFVzHGaC36t7CwIC4A4nRsCLeKa2LQlaXH3udDahlZhaCjtLkkRxAIGf7L0ZHC+GVHhc+hHc9+9uL+ZrKQAACAASURBVMRDiwoTKwRPQ+JhqwJTLEu7rS2IbiLLst+Zkpws6BsTAAiu8RDvIMkjhhDg2gb05uP9AeLQCaV+042teyxNb1LceW4QAMISs8uQpImR7QEqejMfFVVuRUXuJT+Zv68SE3sSsQyDwaChIgLXEoL8o+uTg2CZLYtI/6kMqTJLcPHn9A1qDLAUzysbfVRrU/WiK5DhW+htpLupLVLqO24eaxTd4DLtRU4TmiAaSY27wJOHcx4CD0JAV7yUKHuwBERRqRNxPMftHBzLsOE5NdJo/CzRIyZpRI5yLGlc2JUMqnuvxpAxzilYttNE3K842Q/IpW65y9Q87StysIglHu5Iz6DZ59TqahWdscc99lMZDjd256wfi48BWFkNTt8wnRdG2dJC8KwQQ74qL1dXPcqDtXkQCGrdFA6l+KtsM0Jh+WUlDPi2hfc+bmOFWLoXRsMAuRbu8glCHmgv5i2PoyFt1aF2kol0drvKmRkSAhg9HAhMAQIBSTmpFg00EWpd2G7CUe2ioeyULfRq7iJHnFwpu7xQXjqgTKwSjw/ZsjyWZwqL52T9lBSLe4jAXNZHu+vMoq2vXC1XoICTjIyGwFT4JxOMRtuaqJQbq2zVRavzRcnP7CXDu4DcpPnY1/hG5h6dCJqmBdyYYzwaW5JSsURZcCJwYLAwur5D6PtYMi132RWr1fLzcNmFgLIrpDCrs4tVW3dCfCw3aeyKayJlxYC9imsT/v2u9bwP7SxlZR14/GqQmTXPVC4XMDW5jFXFxM6ZvVu5BGWSW4Cmc7Q2ZtZaqfQrrH07obI61m4x1NaPZ40fVmaErgczYo4EBogcuvce3hGYHBxahHyD3aGyfh27ErCEwPizf/0X+Ff/z58Cb58goQchrg6cmhiDCtkcJ25TmVRytNA76YsD7POFDbLKyNrvV76cGrxrLrPrFnQmOyq++A57Bev0lbhbqmiZ/Z3fsMKGDmUCya7GxW9S2fkNaboRorePYOnaXVvR18lNnuxKgi4qYHLIKwCXV8Bpb8w1Hpe2RXu5AGB03TuYBV3XwXkP13pcLhewCMJ7h++//ynAAc4RnHhA5us7HngoTk+nlXtZJxq5Hh4W/SGTYgqueISuiueRV3PWHjHj2Wfr91fquEApd/nz4HNZeYfH5jFd/IxV9/bc0AfyFuaIJS/J37egV1y+lZDkeHg4pbW2dbIKGmkbXyq4vR8n/iCr2R3FoDTEtrlcLvj++894u7zBf/ohfHvBv/nc40c/97No6NaKyw7cvMcNAOQd3n7yY1x+/ZeB9i2tGgIIAm+5xCYuBRr+3OsuXwpYxLqr9daX3fCbKouylIDyZXWDe3F3LNba2nZ+zbHmqRy2Jq4J8GwPaqztfJWXv3CLsivEoXoJjB8eIyNTcyYaki6pTAfvG7RNC6QVdSzG6HuG9w7ee/i2RRMCiOLlBpHnaHk6YbjuHa7/EUQCXPqvfHP8wdhfsRUkKXPMnAhz+dJkbj4TTY2S/bh2PMrCXj545X17aJfKWnunBir+L+V2nb9Y0q2UnPrKXMqDj8nTKRfavnB8vJSH6RAtZK4qLmTW1qtGooY9/Vh6nnTPgDhXfCPw3uO77odoGgf4H8G3LX4Ij+9+/AMECQ9NinKz4mYAznv8wX/wD/D7v/+TuKrgAKQbiYjdckVF8vUkTa6Z7GtdrsYAqgZVrGqMO4Tzam36BKYXjNa+n5Qt6jhZumuKW1tZXEFN3Y9A4ZaePk71pCae1QYBw61O+TgXxxWx83EceQ8gjifhABDHv5mjlcEhJWpZrpBzrELZDwQe5typ4i4UxarMuWnZu2CrzB/Jx1zmj6Kt1eUWeTyCvw3lhyJH8L2jH6sVd8YR7aTQKIeXCEjSJpbzgETVKeTQffd30bT3HBtL7DMSRPCn/8e/xL/5X/8QaC9xgk/Zm0icKgKvfDWguWqHciZ1pRrz3NvX8SD/ylEwzuhaqOnz2vOor0K7+NXwiZ2Hbz+hbVuwRDd54BAj8skDvkFDhNB9D/78PZr2LWZF8xcwM4h7CAcE7pBOjw5GFDOnALa58tZ4FkNxb60SjTQ2ggBsPi4iua03lr9bNGtdHW26wILQLTwfzt8VHvL75oZ01Su2MmjU5RblfUQ7baQhLDGHghAaJ+ioRf9Lf4U/+Hf/UeUL92Gn4gbk8xfg+8+QPq/MQjyjytr9v7W5vx6L6N7UvikDxpQfzR4ME/5m4flgihu0fVIGZhmjrpGu8zbcj7ad1e7a74ZP5CEBkMAIfY/3ENKlIATnGzjf4l0ECO9A/wX9lw6geP92zNbUgzhAug5BAlgCXFK+WXFj7i5fa49bFfdNoKpjnq9s0H8bsPY2H8vF7avuxyCmufXRa4YeX7gB/fz7w9vpMLf8olkNV+qrdIAFi+1VeSo6TUb/5M63fk2oUcRVNsHdaMsBshr3DUuaMdVp4z0ujYdzwOfvu6S0GnDoQBTgpMfb2xtAMWLcv13A/TvQBTjvUyxJ2msszrHL+NblREKTv3bX7Rq0C1csyK4I9BPHQ1b/eXcYi6dXQMzY50Es8AR4SttbD8b+42ASb0gRDvDDAW+Kt6YkEBWrgtdo/yrYebwVfMD63YJ7rpA+Km0VhOESCGbGp0+fhmQjX758hgijvXxKMnZB//4zkPToO4Fv0jWezqHxLQLFzE1uZgyUmHi0nqgMq8bMiRfFa8jSyMBrTK55zEUl7mpXGofgvB3sxIlDMXPBJDjv0aYoVRJB9/4O4Q7eecQtswbSvyMe8okpT0MvwOUT4p2/MSOhW33L7Pl8m/WYCp74ZlBIkyVw3zAmzfFg5X2g4p5aRFYfW89Nz/rOslb5WliT5F4+7tUeFmrH3qvX8dHtpxEV0OBVihMcp69oiG+NFxUQRAR9FxBCH/ernQPBx0AzYeRbuCFAYAHeO0jjAO4hffRiTRfZ8xW3/vleY+YZsnBv2vd4n4Uj+LgvbV1j37X9lMX1PWXBwrZ3yiGJ/GqxW3ETpSCUIWNT6mg3+v1l9vei9ayjKNqRHrM1jYCpmuAlAFbuZhUWbVWSrDpqPOfpfittvagJdU/GqIt1TEzlo6Y99KLV/XjIjL9vj8qRA/wl3qvtCCJd3CpKmdpYBJSUNgCQIzjfwnkH3zRgCLjvwH0XaYHS8RPEpEYhs06T6o1mgV7Hcso1g4M1WagdM1Uzp/Y+S94tWbBo18wXqLROjDGzezxagZ6V41GFwZ9Kd+1LRXmrc4jRj2tHDavmEYXOUfOCSsNoa4k5IUhiulU3zWz0EDzeVX766058aOSJwiEgJmVwvoX4Ng5gMJxrQdLEG75E0IceHjHnsQCgxuOtaUZFHt5BHK/ribgSQlbhtjyH24nDcLrLI4Z2KAyVj+EqH7NqQ2Lu3GVuYr2HVbta9Ofm0THLqNMWH0p+ahNEdcFL1uXpGmmzjttpW3WsGkxmHa22rqmj3tZ2HZVHZh2383EU7TXC8VpOgJyPiVUco5d4hMxLvPHNOQeSGFAmXQ/xMSNAiN+mvex0r2/op2usqzzJITKi9VjVmDFIE/Qq2GN6e13uOV+YMPlTK7mdrMlH3XjUaRsNZf5gw5fDX1bhA/rASpetPD9izrGL6oVf4e7znStuGf8TwZiWI648lqWtdtMTeljXO6rNJjDS7ZknsJclTRo6tAvv6uuoM6LSVvZ+oD8yYdfR4lovaanR7XU0aAtU69W6XLCe9vL59vYT5LuIBIBzF4h3YAeIMLgPMVWpE3jfwHsH5g4c+vh9GN80JGuUmJBFmEGuwg16gIzU9qNesrIP1LJ6XewxbdHePl/U5HuxaYi6B1E1rR8wHk3SYk2W+uvWi8rKv8qnmnIFNOq2rOpyHdtp/qP9c44FS8c/X20f5iqvMetOnHgt1MzheeoQxBWDcx4iQOi6eCscx3OeTgjcB/ThPR6XHFYLAifJjKN0nLK4AvTEidfEA/3k50C4imrFPU/rHs+nRveBlBccqNEwVpCCbqlZbmvtztzayD62YigrAnPMawNUw59V25D0i3n1+67jVwofZvTc7O9k5eY6EhVuHwd9YOq1zHUcL8xI/hcr1k7jzrpA/ZCbo7RVOxZVjJLHkOFu71xAu22IQHSJAWgpc5lDvEPZMYEF8I2HaxyYe3DfQyDw7RuEBRCGhHjki5Pml4ELFO/dBr3ft64T8r+PkHdlPFqORtapsOpl0cejtcq3AvD0sURVeogHKsWPROrGo+EJ0fnWafDV/rrOn+XqrZMnvaiVDFnj25zPDJfqVBbGQM06WajQP4Wslt4wlmh8i+Sb7sWe5O6E/SvulHjdzSwye/rQ3IE19/xGKhrlJdbSP+rRtJZLVmXFkAFT/DW3mu7dM4moj83MPdbxIav9tOfLvpmUKohXqdu1Su627AlaFLBV60ApTmP4TZ8Kh+jKTJG83jmIawHn4NCDWAAJEIlhZa5p4BsHDgz0IQanOQfnGzAJpO9AEpV2acSNnyrGAel1tGksjZBY55qUscoz0ce0gCvlfft4tESnbiyRqWSWNAQ5Yr1cTFgjxlIOlkdc50If00LrMrKFP3t+sk6bbB2PeptasmDPZzqDx8iCIqtSfwf7aHDLMVNWJfYrbsqWz/Z9sfvgwbdBnfhKEDDeYZ1jM7gwSJIniQggB+8cyMVVNgvHm5RJQI2H8x4sjMAhrq6R0iMC8AR0EqJSj/lAn1TfWKcTJz42aja4vj5UK27dgqOHuwo0Lpbc2aaQqC67uktQrAAI7blF1QpKtWjrNKyzjFfqItcv0nj0pTD29ohRXnkWg2lrVpIuncFuIBDEGzQ7eIrub3IOlM9pe5/OWBNial8GURPLJI8Zi0AcQOTQti2cc+i/fIlXc/rGrEzdiQZANVaNPhfVzWjIe0VbL2nnsroUW6tcazyqLkxju7VuLK3d5TyncczlSGr/Wv24wss9+BBY84gUMlVMbsaco899evuZpwOMCVR9XCsLZh2Vx2UJw23+LOxW3DmsZhpV/ip4YEDFiZdB9P5sk0UGxSNdroGjBuQd+uSUY+a4f91cQO0FIB/9SqEDhxDjOvoAeAdq3DBZNE0b9+mIAOcRui8IfbpBiPLe6l65NFYcj16ImNW447j7thdbD8b9+nF/N0rU3N+gLBzmKn8+nrDRcOIrAIF8C1ADcQ1YAoIgBY8B3l/gmhZwDQQegXtAOF2iI3C+gTDB4xLnECl8PyIIXY/w/gXEAbVXlp448To459ZXwt0ypzkrNZ/qqtBDwlzNJCdU5a3XuaubWF3t+9TyVjRtJW0NO1N5XqEOACnlbSrDYff4dnBVNGr6QAPBwTWfAEQXIvfvQOhB4gBqC76AnkJ8oSPAe0jogdDDgdC/f070BL7x0Q3Igv69A7hPK21Z3VIyx0wVtrcfgYxTDQblKpms4cMadfo39lgyKChlrZArrQeq28ni5ICk1kfIiOWY1ynnfkytdcN4u6+cYXO72nK2XVYFo9ucecxh8mh7/Lwd7MQuMKdgroRXyCpUC8obZQL0fQ9wgPMtyF3gSEBBwNKnlbkDnE9RxgJIgIQOFByEops+5P0wEYD7D9kmJ06ceF2civvEPsgY7ELuoyqoZG4Tw3kP8g6+uQDiQSwI4R0iDE8t4F0MtPEekOhkiElMOa3sBAjnCYcTXxNuX20/Bt9e0MNuxS0iMVJvkav8RtBtq7Z8GH75xW6OqngSI+nB14yhbQol/rB37zQWRBjcfYHzLUBA274N0wCJgNOeNgUBh8+gyxtc0wDkwOjABEgAHOeQtjFSnwkg8rvrOPI6lS2t7sLfmPDdCAH02L5voPmsc9LGeQT1493xonpYgLhV9mScK+4T3zQcAO56eOchlGMtCAIGS4Dwe7xaEwQGQzqCpzd4HxOrZPc4cw+Xfv0NzP0nTrwYvq1Vd4Xiftx0dPOqbSeL1s8JdTyt0dlT9sQSdr9sa20BQYQRuIdzLfIEIFlRD3nGBQBDgkP/LqBLC+d9zFXeCKT7Ynh89suNWf5bWB7uxGoLfavNt6neMyN09pu7z08b9bAs/pUPKN8P8ejzc3HzituDYtphTq7Bqut2VnDjYDrqoE1NGlP19wYNK0p87/u+eZjyEluQEV3KAoA4DO3KVExNFHOnOUI6BxZA1MC5T5DWgfsOErpITb6AuAd3PYjeYvpSFsTIVJm8u+ZkwE34VhVPJazx+K2OMe1WgrEtlqpwa0rRw7FBpTyLP5G8PZu2ih+8RXW6yk98tchKu7m0YBbwexieT+AckC7JGQLtkNKVNi0IQA8eDdQQV+FCbriS051a9MQLw5ZOfXuHlkWeg+r14LfhMq9U3CkA7MbziLWuvZogtUPchjT8sQN6kF50t2ult5c9sQ4a8ubnBwCnfwXhlB4xKWbJefUE0r+DuQGcSylMCdQwvL/EnCmNg0eDPiCd8Ub0NHXv6TMDnp7qutbGis7PN5ZN0MjG/C2NMW2DaPNvjParabtSNm8aI2u6+AD+qvECxzurV9xRcQuE6KtLBHWUt9+ivdnd/g278Y4BAY7gvAN5D3EOEIa/NOAugEOYJPchF0PDOYy3qfF7AFqCb1KaU9/EFKciQ6IZCX1+G4Sfn7/4xBLWmH76GKsJeNkBxfFdhXy/zi4eRPbnMljpx+Xz+03kr2Lrna7yEx8W5SBarCOdg/ceDKALMQmKc348ssY5BA0xenxB26Hr3iHUgrwDHEDUAKEHu3RuGwBJusRxyEH+XEhxccyZ+OV1sd1DcjtE+XQLgb1qsJRJYIdcfhte8E24TXHT2H7xaGmMuj1c8O7o75hM+oMwGFJhnRE/mpF1Lr555KZy3gPiECQpUGoQ1XAMLIvlHDgAIQQwBOTSfrTIsNXjVuSLwIAA3AEEn85u83CnQflTKZl7EvJYKfMZfGtyZHZBRd9YRY9sSxEBh+WbCMcZW7uVtkJvl/JOf++u3YwRe8vj69bylYqbYm7Y1B7xIgZJodTHMnZvlNv0wzVtRoiiIFSJQI3T9HSw1kHIwbWf4MhBugB2HPNiE4H7HkQ+ushdA3IE50cRF+YUAc5A6CDk0mkENj2XwgHSC8RFN7n0PZwMIwGjvLzG3jHR693R9yhYJzRqxtgjTnncu4+OVtp7cXh9C528vlv79Srv01V+4sMhhABqXFTQ5CASINLDNw7evw3Hv1gYRALKG2FNE4cxC0KPeMwLYl5qkFWx9AEhrehpYd5/nRPDiY+OnUr7NXS+ja9XJ2/CoYqbN7i23Z323cyUpxbMSMfXlYbqOt6IW/voVv5qXIQiEt3fLPHea2aE0KNpPJxziIe94gqcAoNDgIBjOlK6AM6DHME3DZgDuO9QzlJl3VmK2876DkIC4vE42bTsbW6na3V/VJ9/JNS5lKXqiK1V9IhjujXjastcqmHLartufI+nZEpdabXHQ+f3Tcr7Dhpe4qmUweH8hOMJD19x852yzsRGrB+hQ6Rw/Bc0gada2ndCdR0rkSfDPGnU9tOcv83KOP3uWmmORIdNrajEOxA5+MElLlFZp0jyvu/gOClncnDkkutOYrrS1P+5j8OE//R3fBn88FX8YrgFbFKTbSiPrl2r+yvI3ithOmZH2Hvc29tPK3nE0TGL51VebnipFH+ul9lEKH1UfqHF5txQxxqotB+tvNP8IwBoiJk5jvxWPMVVfo+uvVVgpkcV9B64l7FRi0dP4LVv28vf1l8LBN47CAcAhLZtJ99z/oMFJD0gAQJC6Du0PiVUSUrXewfpRwU8RmRPGRslZIzMLOvr3L5oBavup9Jegq3jRWaQUgVu1Q3XyIpUnat6VGDutQI1d03X1rEGLzMO0rYbY1TcLPL1ZE4T67p2MymEFhSmR4rkW5iWZXWhUZ/K+N0wKRPACt/kCcIyJOcYnrNxHLNCdmtz2dQ5uepo3OsYUS0f6zQ43trVfwEDaD59BzgCS7wfWyAA+SHQkOCRndsNeXgBODAkCBwa+IbQ9TFwLd6xnbwuIoC4BZ9UcFKqalWsZVpew3CUDHH1b5RQn97WS8UWUW6veYlKoawpbqWirPLOxCzyS7qyDILS23SFj9U3b4PVHprysduaVGbM2XNY+K2bGQIlc2D63TCvzl+iVn1pqMZfa5aP6OPA7HPdCNb6TIjVs9zq+BCvPU1jUKukzkeMdYk/cYAZI3NP7FPcNOZ8FqRcz3k/hIwoW7WSmtK23in6LLky7rcWZ+uLVM+Aqax5qlklrvO4BbVxy1aO5ms0BtdtLb+z8nkQq3W/ZSGUXdcECEI8muUdmAlELlWOh8LOexDeAE5i7qObXBAw3KlNBHIOQdJ0lkek6CqXCrm+Nr9FPrdUNK8gadlnppV1q+dqOsvNFWB8ZaXirihrzdWV266LQS2JiGE/7XvfVWYW1A3lrbX1+Oc2yno5qZ2L5s8oGz/6dwsujJctlKhEeTLHgUJbN6qWs1/8V45rweK7BZmB8PSltXNdPhIKUDxvtNPbdgsOWHETBA4CBwalq0pZFdzsSVlaQkrZbEaab61i0Xw2USqVg5lp+1ETU3Fv90TdpPjn/bCVxJFGpDaItIsOrlHI3pCsWATNMFEwCzjEu7NFAOdakEPMiuZaQATBCQQBgXsEYXjn453ZbZwUJK3aI20Bpf9KPgTlpB/LRoMvuu0nXKfkLFvanCEQioF1W1afeX7co3/iunXZC4IQj9htolHHhIgxZjbTiMaZ7unKHpPr/Jl8GK9ctrYkD81SmUSzd0adwqJsLL+Us2G8aIa34uUby+4ctbNUmKt8CGC2oMz/IXZZY3KeG48CUbwnubXdxB69bsjI5LM93MKCbxm0fPzRIHGHGYLbsFtxB2H00gPSwwmlqZVBCNuJiIOyXIMzLyyful6iAW47JTVXRvloOMdNuoNfRAq3SMGTonSzw3YO+zai+/W4KEv0Z6R61Phg1LmYmDKhuMfZeA9yLg46YYS+Q+jeAQRIEIh7B5p47SaRB5OkBbkAEvCpvcR1AAskMJxIkUwoGQjiZoICUFqNx4rFicNRlL9FRSnJ6YZ6UqofDQ224TfAJtrGL0EuLFauw/cb9+wsx9oqlkuh7UtgSgaOGqhEi7Zb5a+Kb03xLJXx+L45cdarqKx0iVKAqBGMpbKtvlOHI60uS8I5GaAUsjDarLRIYMRkRZXL4hKewWlirK61bVKXf1gwEw1emTG3ZtTOvrHcDCWj5a8FMd23EMAhGYAMiLE1fCfsVtwCD6CFoB0aO05Wy6Ql2Qpajlu9mTmt5idF09OlcrQHPl+bE5IgR950q3iYq8s9boteTcRrhRqt3Q/Pluf8bQ9X3BofsqFfJjTGod+2UWwDCNwTCA596AB4EBNiLn0XV+SuhbhmmIDeu3d4/wlMcRVOJOg5ILAH4CESJ+Po8Fkak4PyBsY9SwF4kNNikrP29vQKDnXcsuLe14/JYxFc9GLMF5KyXPFYKBLRbYJ5Zn6r4hZMPCPT75R9V4O/u13rOZGF8jlB05ckbsmHRMWtNdW6sXtd1uIKWpFrAG7myYiZgYulbPGJxC0WOTJ1R01+o8UO6d4QAjEtWlAQzaSy/OgbG8dh+f2yrcpRUyzPVa1k6ySkrYKG3gBq0UsTvXoPxE7FTfjzP/8L/Omf/X+g5q3wbOdrDmctCUu0aOGSIQHEeXAh7SQwXU5xwlk+vmoHEcG7rLj1m72ksH7pyn6GxFGnvEYG/pxw7vvDAoHmdV9zFT1DcWvYzkfObRbb/rvvPiH0Ab0I2k8/ACDo39/BXQdijlHH3sH7Fs2lHQZV170j9D0+ffoUV+IShebL9z8FJ+s5Tg+cVr/KJESja40LxS1wyyWwRM43VTTRIGxXYrsVN0SdUKNMVhiU1W9eou6MczD8xVYw0XY+Vt6qP1YIWe2h1tGQMxZZjnXL2EjKx/5u9k/FkzkGp40/EbgcDVKUy19qVoglu/aqVl1YiFvMZ7aRPx1fmV75+8zpVJEvrNUly0YAHhPBCcGhx+fQ4Lsf/zVqHMxHoEJxjxXN6liYEYjxV9/38G2HpoxOK36z5VJzdhJdLS4GJzh2ADN678B+dN0NSnTLyvcJyMf6yrExnBtmwEFwSZEgcY983LENRed7P9IrjwvHwIh5XywHrQCqhW/yXenpMcbtXfoiDpZi8IZovL3373AhMt7xO977d4Bjwg0vHhcXAGFI9wVd36PvezTeow8CYoIEBnOPz19+iiy312TVatJp8yVa0NvDmsaOaL9t/UjDX5ohaNWxRkZqbw5UUnebq+Iq2qPNvQk1Y+ae0NoDMFbcBLAiuNbqXDr7vQKKAcfiIGmOKtfhV52XyAusYooWw6zQFhcS1/jztc/Q5Vf6kgt/ukMyQjka3BdPEOZkmI6LSkue7EVS/K0X4D14vPFnxHiHx4FYy3Z/BSk3FYTf8dM/+efo/+JPIMxwroHZssvFd/FdnMqEAPh4hOdP/+X/jj/6b/5r/PAHDTpycOJT6L+AZGplEdHL5GgWROOitK6JHL7vBL/6d34Hv/OP/6O4xyTl9C5qNObw9fTDxBsVm870P1YwXikGWvxBtSRtRB7g6ZWuaWImpfcO7nIBXJPykIfx5i/nQT6uqiWk547ic4rJWcAM4X7cI8P1iWmb+0Amf10vn3+2R4LzO7d0wqi4VRmxSFRpwOI9m6B70XTalXSrXAKvMIsAajDKiuxpq/O6foweLXHR0vm//pf/CX/8P/4hPrUegnZSakFuRmX4nOblrLjnq/HJ74Yhk67MTfXP6nCzneaA/CsvgBMHOMJnDvi7f/CP8Ou/+w+SdVZQJiosdsVimDCct2koxXQ1kLef4Bf+1u8B/ruHyc/NrvLoSWjx3W/+Puhv/n5aBc73o6eulwWKBXoZ84O+w//8L/4a/9l/+d/jVz4B7wCaYgtxodNKvu6lPDYiea2m/eeAn/bAf/yf/C7+4d/7pwD8YD1a50wtEGhZSSOIz0paYL9xGy9rR5x0RwyAeQAAC/xJREFUCrvXkcWfI7X3rgMRock5yGejbLBpUugnuYnIDRMEmUGQiutPph/WdfNKva/NgNVIxu8VOpN2eqri3pjK1dAxy/5eIaB5QXWyL6O4rdZRPUJzxW3ooPX3xf8DCTwz/vh/+GP85//Ff4d/5xNQ5CcyW3xhNxQr7nkQ2qpU5O5aWf+t6pPi/V5ie3ED/BUD/+l/9U/xO//ePwHIz5gojYpxUag3tQAIyAHVccH1DuYGSrTC3bBPcUc7Kq2IpunuJm4aY26QoSwP/yYQxBHatx/gt37+B/jNX27xvfzl6DZLDTYR4CIN5taB94jUoYS4V+WaFn/2V4JP7gfRB+QkRiFnPmQ6UCdJXrT67JlcZMX5cYx+vR/dWR9fmnb6/WTyiiuH5M/A4G/PKQtz2lQAmt//6j7zjKdhb+1ZE392SWTvlejyNM3Rf0c9teZhy98P/YkFIwP/M59pXsHp50qN9yyeyfAOq21eFVqzivmPClAcJw7RkH27fMKv/+IP8Ss/duj4r8tiKlPTlXYsGbs1WhVSfLlwIg6plhmcb+/L42leH8URMX/AQLr5Lx13bN7wJ3/5jrfLDzH43OcesqHvZ8e/Fq/KR8RykicB5BJjnx4oPruD08Y/gWuhYJJK6zcG5wQYDvFQFqPxhItzCOwAGhNrLM/XopyzNuFuervwulBy9XgRfAfgO/IgNEmQ4zGGbPjYqzNFcnfyZ2Mb7TWL11j7b6JrIk8ENKjh0VNj1Gc4b1lMFITsgqNJkKHFs5Cy8qFklBaKej6ZZtf7kGFpQhW2R5zsfcmrGPgZzOkZ8lMpnhgrO4uP6olpfemf+5OVsrkNnaf5zwraGxprRdMMrTQo8IoJ5I64tqrUFHdVP6rvHK+pzWq2CQ0uPF3kXBOBbFMN5XO7KuN1fjEu5/ShcaCqtK8xQIhxQ4Pd5wDvPH4AhzduYU5Sw17lbBvWeEuOiHec3B2UKvQg5X2T4h6HPy2Nl6LM8tmYUWgYNBPziwYr2COgcd+jcQwv4xnI4aanGd3h88a0kXLH3LJlgAuzoPGCiwvwEiB9ANom7f/ovCUO1SeaaWSmNljxdNyr9vcI0Zi6oPKKK//TaD92+vGbWXnb0KA0jJctlYMKRxpz1TwapzUZrTLtPRhN2kxIhiM9Mnl+Xz7WEEf6aE4V5lhRJn4vmPe/3id1DJR9h3jRzD6KD4WeslSXs+39mOfVGH/jmNHKF7TOgd20vax3jWXGuZ0G2UtSqU7PsUYueckmcrpc8m5D8tXHxVHARQSNyGxszF8wl0ENRd1KC/yBq21gh+JW25/8tNDyo14/YkBifDWD4UhwaRi/9ivf4Vd/6Q0/4xaOGDHi0cXjVFXQznfe31UuImAWeN/g7YcOP/i5Bmhkxs7K8kt5slc+jqDxbGzxaO6LDh5fUL9vlY3ZV2nl5ZnYV0Ntex29l/gqPbUPe69/ZZQBWz+4ePzar73hV37R43tMg3+J6OoJAwKNK1DJy9HI57j8VvcxxpTLWHqzstVwtbbiUxpXQdu+4fIp4PKdn5bRldHalwNcLlIOrgcK0lNuB9MRa+3gINLj7a3Bb/2tH+Fv/Mihb34Iwns8HU7LM3634GGKOzB80+Kn37f4uZ93yXeVxfHrmDJOnDjx0TFoWUB6fPddwG/81gU/+XmPzl1mittt2GqUwnh2gKQTR+XkrZ4pZYj0Q5Kj+KwoJwDAaf5eWfSISx5sgacWb79AaN9EmXbXPJ5bVgjXi9wDL6S4R4gATevQXAKcD3CO4JxDDDcwsjqZkqQ7hvfap2sYnZSA8wARo70wQF+Sqx+b5eLEiRMn7o88T8Zb8prG49MPHNqLAK4ZYgFjTI694h62oiY+dSqyDa55GJNbXeKFQTIEs4zBluPm7PJ42Rzx6k1A5B2XyxuIarOkaLFYr4EXUdw0da2nE/FN43B5c2Bp0LgGQjmgS89tvlhFX8tD+zAQegZ8I/EMcdo9rbjm4MSJEydWsHoH10bkKBoH5xq0F4+2dRCKamLMTeEmuQ/KeWyiuNNzIgZRvsWB9DVWUtaAQNgfMnf7ZAsQCI14NK12tdEW5fx6Cvx1FPcE0Zz79HbBW+sh8gnexQQsTMsc6AB0xf0yIPTBxRzZ4sb9kRhz/lTOTpw4cSJOSB7Rrc0geLQtob14iFziGndylNAI3Zoco8grYwyBKeMqGrqrHOU8vkWZWuBhjxvk0IYG3vuV323RHbnM8xdcL6K4pyDEnCI//PSGt1Yg7g0MBxIGUa+UzmfI1xq/VqlvDl/cUIIQQky5h8Cnrj5x4v9v74yW29SBMPwvUByfJtPcdc4LnJm+/5O1N51JbOlcCIxMBAghkGT/30xLU4yQidhfK+1KZBeWIr79ChFANE5tg6YSaHEtcDRfCRG5X5u9+6dSysqft87fbaqyZh5xRohFmalJOeF0aVBH8+vsgtJ44dkId/8otLqgkhqNVGiaFnV9QV1XEN2gwsUEr91lAA6BYMMYTH9eDaWvjWib3GihH26xIyOXyhaobwptW0HqfkOTvGKPCSGlI92kbsi11kVKQUTjn/Mr2kZDOo97TTXM8etVtZ1Y/mXtZlchPri/sJYLtChI9QL5a/YpmK5sKGlEPBvhBswMiBlJ0Tid3/Dj3//w1l5xrltcURuPG/ZQuS3cpgTzQ7+/tiXcQR63KwiuE+67tW2ny+7PfF40qvMroK+ANBhSHRilRgiJR5jX3dsgBVTA6fsPvP38he/tFZ8BDoae2JZUAGvYfPjEbbVJseuyFjtiXaDlauKi0KJ9B5rza2C5Afe/sY9tD9pkZA90/7fWECio6wf0xx+jvVJDozbzJ7fFpwET9u96ML3o9quxBQq3s+wAj1vMBorStJDm3aQ3WMuiUrgJIXHQt0OIYVfQqLSG+viE/vxtAssC53RdW3b6s8UmdmoivYNVA7pB1bxAvr04RwLSs/LppBdud6qWBiC66jZz71L5Rml44r78KxE6cFvKHrbcU90rUMFaQs6vEEII8ULb+r3i892WnjCpWJUe4o02Mb7ea3Q55Kb2Nbpbs9z81OfwlB1eNIylZDVUPtANpQhuaQfSqzZGoQvO36+dSb25GiNGHrcHwyZyg4BrqU2e96YKEkKIg1sq1Arxhkm11dAQ0YOdje2hjouLVrwzzwy4rQAClG1xramF9B73g+A1VT3V1aTHTQiJyf1Y+RYjf4h1mnXAYvBYMldy9yMf/OLUMAz0U6gJITszysbK2ursrqvZP4FVULj34LE6d4SQ4pC7g/2/5UjYHoa0nG8/B4U7BuW3A0LIozJhn3wl7DA/xHmjve5esoBLrsFpBVJqGyCEPChWaNpMvG6kUN4d2XOti/tI9FKgx00IIc9C7o7mpHYeIaq5P5wBCjchhDwsM+Pkfp8EkIsvelQtdooE0I4/gQVRuAkh5BlZqUtp57oPr0VHRBF3FRH4dTjHnZwyhmaek+yzXyOw59KDJA9mlmEZnVpasCWPnRX6Gh5dkwjz4a4HHPBQKdykUKZenJi7/eRQTg6k2QGJxCRs65FkeDW5lN2IDSIeIRqQwp0UGsEwlnwCG99nXJBRS0oePhdJx+EtYFbEU3nfNoEivqHKnONOBo3fMfhEgVC018HnVSb+gWpLJGsBk69zLm3ymMj0hgISwjPMfRJCyDRJx16cN8/B++7ZNz+cQ+VB5NAwSBxy6akTcgRx57qTSuVkzyG36Zz4S9xQuMmTs8GQhVzW3y4nu0KeDEebHy2ytrZpJ2vSs+Ldk8vLFs8Lp3CTAvE1LTu9sFveOT06Hg07DgTAkhcYKt7j0g9h0e1/NBEXiFKKY4WkUFxNN+TFXPEKPPLbsurR5WIAyXamN+7e2twPbyWrb1hmO6ZwEwLA20Q9+tvibcfKNHhkDn13mDgbxKGtJfhm5bRppoMRQgjB3R7eE2uZhyY7bVqaO/Rmq29YTq+cc9yEAChuZSlCdsGa+15YKRXTp/NhqYLOlLL8PW963ISQgewtMTmGzrdecLHL2QhzgkOHAuJBj5sQQsgE1vD5zBz4Uox00eKeIRRuQnwpsGdOSDzWizjZBwo3IYSQlfiJePZ86WWU0e34H2kpPJt/R0oqAAAAAElFTkSuQmCC;" vertex="1" parent="1">
          <mxGeometry x="143" y="410" width="314" height="181.15" as="geometry" />
        </mxCell>
        <mxCell id="NjwTReQdosU8l-BSkDYV-1" value="" style="image;html=1;image=img/lib/clip_art/telecommunication/Signal_tower_on_128x128.png" vertex="1" parent="1">
          <mxGeometry x="336" y="258" width="80" height="80" as="geometry" />
        </mxCell>
        <mxCell id="NjwTReQdosU8l-BSkDYV-20" style="edgeStyle=orthogonalEdgeStyle;rounded=0;orthogonalLoop=1;jettySize=auto;html=1;exitX=0;exitY=0.25;exitDx=0;exitDy=0;entryX=1;entryY=0.5;entryDx=0;entryDy=0;strokeWidth=4;fontSize=27;" edge="1" parent="1" source="NjwTReQdosU8l-BSkDYV-2" target="NjwTReQdosU8l-BSkDYV-4">
          <mxGeometry relative="1" as="geometry" />
        </mxCell>
        <mxCell id="NjwTReQdosU8l-BSkDYV-21" style="edgeStyle=orthogonalEdgeStyle;rounded=0;orthogonalLoop=1;jettySize=auto;html=1;exitX=0;exitY=0.5;exitDx=0;exitDy=0;entryX=1;entryY=0.5;entryDx=0;entryDy=0;strokeWidth=4;fontSize=27;" edge="1" parent="1" source="NjwTReQdosU8l-BSkDYV-2" target="NjwTReQdosU8l-BSkDYV-5">
          <mxGeometry relative="1" as="geometry">
            <Array as="points">
              <mxPoint x="410" y="494" />
              <mxPoint x="410" y="516" />
            </Array>
          </mxGeometry>
        </mxCell>
        <mxCell id="NjwTReQdosU8l-BSkDYV-2" value="" style="image;html=1;image=img/lib/clip_art/telecommunication/Signal_tower_on_128x128.png" vertex="1" parent="1">
          <mxGeometry x="480" y="453.57" width="80" height="80" as="geometry" />
        </mxCell>
        <mxCell id="NjwTReQdosU8l-BSkDYV-4" value="" style="ellipse;whiteSpace=wrap;html=1;aspect=fixed;fillColor=#FF0000;strokeColor=#FF0000;" vertex="1" parent="1">
          <mxGeometry x="295" y="480.57" width="10" height="10" as="geometry" />
        </mxCell>
        <mxCell id="NjwTReQdosU8l-BSkDYV-5" value="" style="ellipse;whiteSpace=wrap;html=1;aspect=fixed;fillColor=#FF0000;strokeColor=#FF0000;" vertex="1" parent="1">
          <mxGeometry x="295" y="510.56999999999994" width="10" height="10" as="geometry" />
        </mxCell>
        <mxCell id="NjwTReQdosU8l-BSkDYV-10" value="" style="shape=image;verticalLabelPosition=bottom;labelBackgroundColor=default;verticalAlign=top;aspect=fixed;imageAspect=0;image=https://cdn-icons-png.flaticon.com/512/2426/2426702.png;" vertex="1" parent="1">
          <mxGeometry x="220" y="488.57" width="52" height="52" as="geometry" />
        </mxCell>
        <mxCell id="NjwTReQdosU8l-BSkDYV-11" value="" style="shape=image;verticalLabelPosition=bottom;labelBackgroundColor=default;verticalAlign=top;aspect=fixed;imageAspect=0;image=https://cdn-icons-png.flaticon.com/512/2426/2426702.png;" vertex="1" parent="1">
          <mxGeometry x="280" y="230" width="52" height="52" as="geometry" />
        </mxCell>
        <mxCell id="NjwTReQdosU8l-BSkDYV-12" value="" style="shape=image;verticalLabelPosition=bottom;labelBackgroundColor=default;verticalAlign=top;aspect=fixed;imageAspect=0;image=https://cdn-icons-png.flaticon.com/512/727/727790.png;" vertex="1" parent="1">
          <mxGeometry x="286" y="295" width="50" height="50" as="geometry" />
        </mxCell>
        <mxCell id="NjwTReQdosU8l-BSkDYV-15" value="ZONA DE FERMENTACIÓN DE CACAO" style="text;html=1;strokeColor=none;fillColor=none;align=center;verticalAlign=middle;whiteSpace=wrap;rounded=0;strokeWidth=3;fontStyle=1;fontSize=27;" vertex="1" parent="1">
          <mxGeometry x="143" y="150" width="390" height="30" as="geometry" />
        </mxCell>
        <mxCell id="NjwTReQdosU8l-BSkDYV-16" value="" style="rounded=0;whiteSpace=wrap;html=1;strokeColor=#FF8000;strokeWidth=3;fontSize=27;fillColor=none;" vertex="1" parent="1">
          <mxGeometry x="120" y="211.14999999999998" width="454" height="380" as="geometry" />
        </mxCell>
        <mxCell id="NjwTReQdosU8l-BSkDYV-29" style="edgeStyle=orthogonalEdgeStyle;rounded=0;orthogonalLoop=1;jettySize=auto;html=1;exitX=1;exitY=0.5;exitDx=0;exitDy=0;entryX=-0.037;entryY=0.588;entryDx=0;entryDy=0;entryPerimeter=0;strokeWidth=4;fontSize=20;fontColor=#CC6600;strokeColor=default;startArrow=classic;startFill=1;" edge="1" parent="1" source="NjwTReQdosU8l-BSkDYV-17" target="NjwTReQdosU8l-BSkDYV-28">
          <mxGeometry relative="1" as="geometry" />
        </mxCell>
        <mxCell id="NjwTReQdosU8l-BSkDYV-17" value="" style="image;html=1;image=img/lib/clip_art/telecommunication/Signal_tower_off_128x128.png;strokeColor=#FF8000;strokeWidth=3;fontSize=27;fillColor=none;" vertex="1" parent="1">
          <mxGeometry x="780" y="345" width="80" height="80" as="geometry" />
        </mxCell>
        <mxCell id="NjwTReQdosU8l-BSkDYV-18" value="" style="endArrow=none;dashed=1;html=1;rounded=0;strokeWidth=4;fontSize=27;exitX=1;exitY=0.25;exitDx=0;exitDy=0;entryX=-0.03;entryY=0.369;entryDx=0;entryDy=0;entryPerimeter=0;" edge="1" parent="1" source="NjwTReQdosU8l-BSkDYV-1" target="NjwTReQdosU8l-BSkDYV-17">
          <mxGeometry width="50" height="50" relative="1" as="geometry">
            <mxPoint x="610" y="310" as="sourcePoint" />
            <mxPoint x="680" y="280" as="targetPoint" />
          </mxGeometry>
        </mxCell>
        <mxCell id="NjwTReQdosU8l-BSkDYV-25" value="" style="endArrow=none;dashed=1;html=1;rounded=0;strokeWidth=4;fontSize=27;exitX=1;exitY=0.5;exitDx=0;exitDy=0;entryX=0;entryY=0.75;entryDx=0;entryDy=0;" edge="1" parent="1" source="NjwTReQdosU8l-BSkDYV-2" target="NjwTReQdosU8l-BSkDYV-17">
          <mxGeometry width="50" height="50" relative="1" as="geometry">
            <mxPoint x="426" y="288" as="sourcePoint" />
            <mxPoint x="787.5999999999999" y="384.52" as="targetPoint" />
          </mxGeometry>
        </mxCell>
        <mxCell id="NjwTReQdosU8l-BSkDYV-26" value="Transmisión Inalámbrica&lt;br&gt;LoRa" style="text;html=1;strokeColor=none;fillColor=none;align=center;verticalAlign=middle;whiteSpace=wrap;rounded=0;strokeWidth=3;fontStyle=1;fontSize=20;fontColor=#CC6600;" vertex="1" parent="1">
          <mxGeometry x="565" y="288" width="295" height="20" as="geometry" />
        </mxCell>
        <mxCell id="NjwTReQdosU8l-BSkDYV-31" style="edgeStyle=orthogonalEdgeStyle;rounded=0;orthogonalLoop=1;jettySize=auto;html=1;exitX=1;exitY=0.5;exitDx=0;exitDy=0;entryX=-0.019;entryY=0.414;entryDx=0;entryDy=0;entryPerimeter=0;strokeWidth=4;fontSize=20;fontColor=#CC6600;startArrow=classic;startFill=1;" edge="1" parent="1" source="NjwTReQdosU8l-BSkDYV-28" target="NjwTReQdosU8l-BSkDYV-30">
          <mxGeometry relative="1" as="geometry" />
        </mxCell>
        <mxCell id="NjwTReQdosU8l-BSkDYV-28" value="" style="image;html=1;image=img/lib/clip_art/networking/Wireless_Router_N_128x128.png;strokeColor=#FF8000;strokeWidth=3;fontSize=20;fontColor=#CC6600;fillColor=none;" vertex="1" parent="1">
          <mxGeometry x="940" y="338" width="80" height="80" as="geometry" />
        </mxCell>
        <mxCell id="NjwTReQdosU8l-BSkDYV-30" value="" style="image;html=1;image=img/lib/clip_art/networking/Cloud_128x128.png;strokeColor=#FF8000;strokeWidth=3;fontSize=20;fontColor=#CC6600;fillColor=none;" vertex="1" parent="1">
          <mxGeometry x="1090" y="320" width="160" height="140" as="geometry" />
        </mxCell>
        <mxCell id="NjwTReQdosU8l-BSkDYV-35" style="edgeStyle=orthogonalEdgeStyle;rounded=0;orthogonalLoop=1;jettySize=auto;html=1;exitX=0.5;exitY=0;exitDx=0;exitDy=0;entryX=0.75;entryY=1;entryDx=0;entryDy=0;strokeColor=default;strokeWidth=4;fontSize=20;fontColor=#CC6600;startArrow=classic;startFill=1;" edge="1" parent="1" source="NjwTReQdosU8l-BSkDYV-32" target="NjwTReQdosU8l-BSkDYV-30">
          <mxGeometry relative="1" as="geometry" />
        </mxCell>
        <mxCell id="NjwTReQdosU8l-BSkDYV-32" value="" style="image;html=1;image=img/lib/clip_art/telecommunication/iPhone_128x128.png;strokeColor=#FF8000;strokeWidth=3;fontSize=20;fontColor=#CC6600;fillColor=none;" vertex="1" parent="1">
          <mxGeometry x="1200" y="560" width="80" height="80" as="geometry" />
        </mxCell>
        <mxCell id="NjwTReQdosU8l-BSkDYV-34" style="edgeStyle=orthogonalEdgeStyle;rounded=0;orthogonalLoop=1;jettySize=auto;html=1;exitX=0.75;exitY=0;exitDx=0;exitDy=0;strokeColor=default;strokeWidth=4;fontSize=20;fontColor=#CC6600;startArrow=classic;startFill=1;" edge="1" parent="1" source="NjwTReQdosU8l-BSkDYV-33" target="NjwTReQdosU8l-BSkDYV-30">
          <mxGeometry relative="1" as="geometry" />
        </mxCell>
        <mxCell id="NjwTReQdosU8l-BSkDYV-33" value="" style="image;html=1;image=img/lib/clip_art/computers/Monitor_128x128.png;strokeColor=#FF8000;strokeWidth=3;fontSize=20;fontColor=#CC6600;fillColor=none;" vertex="1" parent="1">
          <mxGeometry x="1000" y="540.5699999999999" width="120" height="140" as="geometry" />
        </mxCell>
        <mxCell id="NjwTReQdosU8l-BSkDYV-36" value="Gateway LoRa" style="text;html=1;strokeColor=none;fillColor=none;align=center;verticalAlign=middle;whiteSpace=wrap;rounded=0;strokeWidth=3;fontStyle=1;fontSize=20;fontColor=#FF0000;" vertex="1" parent="1">
          <mxGeometry x="672.5" y="433.57" width="295" height="20" as="geometry" />
        </mxCell>
        <mxCell id="NjwTReQdosU8l-BSkDYV-37" value="Termómetro LoRa 2 sondas" style="text;html=1;strokeColor=none;fillColor=none;align=center;verticalAlign=middle;whiteSpace=wrap;rounded=0;strokeWidth=3;fontStyle=1;fontSize=20;fontColor=#FF0000;" vertex="1" parent="1">
          <mxGeometry x="152.5" y="600" width="295" height="20" as="geometry" />
        </mxCell>
        <mxCell id="NjwTReQdosU8l-BSkDYV-38" value="Termohigrómetro LoRa" style="text;html=1;strokeColor=none;fillColor=none;align=center;verticalAlign=middle;whiteSpace=wrap;rounded=0;strokeWidth=3;fontStyle=1;fontSize=20;fontColor=#FF0000;" vertex="1" parent="1">
          <mxGeometry x="163.5" y="360" width="295" height="20" as="geometry" />
        </mxCell>
        <mxCell id="NjwTReQdosU8l-BSkDYV-40" value="" style="image;html=1;image=img/lib/clip_art/computers/Database_128x128.png;strokeColor=#FF8000;strokeWidth=3;fontSize=20;fontColor=#FF0000;fillColor=none;" vertex="1" parent="1">
          <mxGeometry x="1100" y="295" width="80" height="80" as="geometry" />
        </mxCell>
        <mxCell id="NjwTReQdosU8l-BSkDYV-41" value="Transmisión Inalámbrica&lt;br&gt;LoRa" style="text;html=1;strokeColor=none;fillColor=none;align=center;verticalAlign=middle;whiteSpace=wrap;rounded=0;strokeWidth=3;fontStyle=1;fontSize=20;fontColor=#CC6600;" vertex="1" parent="1">
          <mxGeometry x="565" y="505.57" width="295" height="20" as="geometry" />
        </mxCell>
        <mxCell id="NjwTReQdosU8l-BSkDYV-42" value="Wifi" style="text;html=1;strokeColor=none;fillColor=none;align=center;verticalAlign=middle;whiteSpace=wrap;rounded=0;strokeWidth=3;fontStyle=1;fontSize=20;fontColor=#CC6600;" vertex="1" parent="1">
          <mxGeometry x="750" y="345" width="295" height="20" as="geometry" />
        </mxCell>
        <mxCell id="NjwTReQdosU8l-BSkDYV-43" value="Router 4G" style="text;html=1;strokeColor=none;fillColor=none;align=center;verticalAlign=middle;whiteSpace=wrap;rounded=0;strokeWidth=3;fontStyle=1;fontSize=20;fontColor=#FF0000;" vertex="1" parent="1">
          <mxGeometry x="825" y="300" width="295" height="20" as="geometry" />
        </mxCell>
      </root>
    </mxGraphModel>
  </diagram>
</mxfile>
